# Blender v2.80 (sub 75) OBJ File: 'Black Box.blend'
# www.blender.org
mtllib Black Box 2.mtl
o Cylinder.001_Cylinder.002
v 0.000000 1.415902 0.083297
v 0.000000 1.415902 0.193347
v 0.384762 1.290885 0.083297
v 0.384762 1.290885 0.193347
v 0.622557 0.963587 0.083297
v 0.622557 0.963587 0.193347
v 0.622557 0.559025 0.083297
v 0.622557 0.559025 0.193347
v 1.086999 0.118576 0.083297
v 1.086999 0.118576 0.193347
v -0.000000 0.106710 0.083297
v -0.000000 0.106710 0.193347
v -1.086999 0.118576 0.083297
v -1.086999 0.118576 0.193347
v -0.622557 0.559025 0.083297
v -0.622557 0.559025 0.193347
v -0.622557 0.963587 0.083297
v -0.622557 0.963587 0.193347
v -0.384761 1.290885 0.083297
v -0.384761 1.290885 0.193347
vt 1.000000 0.500000
vt 1.000000 1.000000
vt 0.900000 1.000000
vt 0.900000 0.500000
vt 0.800000 1.000000
vt 0.800000 0.500000
vt 0.700000 1.000000
vt 0.700000 0.500000
vt 0.600000 1.000000
vt 0.600000 0.500000
vt 0.500000 1.000000
vt 0.500000 0.500000
vt 0.400000 1.000000
vt 0.400000 0.500000
vt 0.300000 1.000000
vt 0.300000 0.500000
vt 0.200000 1.000000
vt 0.200000 0.500000
vt 0.391068 0.444164
vt 0.250000 0.490000
vt 0.108932 0.444164
vt 0.021746 0.324164
vt 0.021746 0.175836
vt 0.108932 0.055836
vt 0.250000 0.010000
vt 0.391068 0.055836
vt 0.478254 0.175836
vt 0.478254 0.324164
vt 0.100000 1.000000
vt 0.100000 0.500000
vt -0.000000 1.000000
vt -0.000000 0.500000
vt 0.750000 0.490000
vt 0.891068 0.444164
vt 0.978254 0.324164
vt 0.978254 0.175836
vt 0.891068 0.055836
vt 0.750000 0.010000
vt 0.608932 0.055836
vt 0.521746 0.175836
vt 0.521746 0.324164
vt 0.608932 0.444164
vn 0.3090 0.9511 0.0000
vn 0.8090 0.5878 0.0000
vn 1.0000 -0.0000 0.0000
vn 0.6881 0.7256 0.0000
vn 0.0109 -0.9999 0.0000
vn -0.0109 -0.9999 0.0000
vn -0.6881 0.7256 0.0000
vn -1.0000 0.0000 0.0000
vn 0.0000 -0.0000 1.0000
vn -0.8090 0.5878 0.0000
vn -0.3090 0.9511 0.0000
vn 0.0000 0.0000 -1.0000
usemtl None
s off
f 1/1/1 2/2/1 4/3/1 3/4/1
f 3/4/2 4/3/2 6/5/2 5/6/2
f 5/6/3 6/5/3 8/7/3 7/8/3
f 7/8/4 8/7/4 10/9/4 9/10/4
f 9/10/5 10/9/5 12/11/5 11/12/5
f 11/12/6 12/11/6 14/13/6 13/14/6
f 13/14/7 14/13/7 16/15/7 15/16/7
f 15/16/8 16/15/8 18/17/8 17/18/8
f 4/19/9 2/20/9 20/21/9 18/22/9 16/23/9 14/24/9 12/25/9 10/26/9 8/27/9 6/28/9
f 17/18/10 18/17/10 20/29/10 19/30/10
f 19/30/11 20/29/11 2/31/11 1/32/11
f 1/33/12 3/34/12 5/35/12 7/36/12 9/37/12 11/38/12 13/39/12 15/40/12 17/41/12 19/42/12
o Cylinder.002_Cylinder.004
v 0.000000 1.415902 -0.873522
v 0.000000 1.415902 -0.763472
v 0.384762 1.290885 -0.873522
v 0.384762 1.290885 -0.763472
v 0.622557 0.963587 -0.873522
v 0.622557 0.963587 -0.763472
v 0.622557 0.559025 -0.873522
v 0.622557 0.559025 -0.763472
v 1.086999 0.118576 -0.873522
v 1.086999 0.118576 -0.763472
v -0.000000 0.106710 -0.873522
v -0.000000 0.106710 -0.763472
v -1.086999 0.118576 -0.873522
v -1.086999 0.118576 -0.763472
v -0.622557 0.559025 -0.873522
v -0.622557 0.559025 -0.763472
v -0.622557 0.963587 -0.873522
v -0.622557 0.963587 -0.763472
v -0.384761 1.290885 -0.873522
v -0.384761 1.290885 -0.763472
vt 1.000000 0.500000
vt 1.000000 1.000000
vt 0.900000 1.000000
vt 0.900000 0.500000
vt 0.800000 1.000000
vt 0.800000 0.500000
vt 0.700000 1.000000
vt 0.700000 0.500000
vt 0.600000 1.000000
vt 0.600000 0.500000
vt 0.500000 1.000000
vt 0.500000 0.500000
vt 0.400000 1.000000
vt 0.400000 0.500000
vt 0.300000 1.000000
vt 0.300000 0.500000
vt 0.200000 1.000000
vt 0.200000 0.500000
vt 0.391068 0.444164
vt 0.250000 0.490000
vt 0.108932 0.444164
vt 0.021746 0.324164
vt 0.021746 0.175836
vt 0.108932 0.055836
vt 0.250000 0.010000
vt 0.391068 0.055836
vt 0.478254 0.175836
vt 0.478254 0.324164
vt 0.100000 1.000000
vt 0.100000 0.500000
vt -0.000000 1.000000
vt -0.000000 0.500000
vt 0.750000 0.490000
vt 0.891068 0.444164
vt 0.978254 0.324164
vt 0.978254 0.175836
vt 0.891068 0.055836
vt 0.750000 0.010000
vt 0.608932 0.055836
vt 0.521746 0.175836
vt 0.521746 0.324164
vt 0.608932 0.444164
vn 0.3090 0.9511 0.0000
vn 0.8090 0.5878 0.0000
vn 1.0000 -0.0000 0.0000
vn 0.6881 0.7256 0.0000
vn 0.0109 -0.9999 0.0000
vn -0.0109 -0.9999 0.0000
vn -0.6881 0.7256 0.0000
vn -1.0000 0.0000 0.0000
vn 0.0000 -0.0000 1.0000
vn -0.8090 0.5878 0.0000
vn -0.3090 0.9511 0.0000
vn -0.0000 0.0000 -1.0000
usemtl None
s off
f 21/43/13 22/44/13 24/45/13 23/46/13
f 23/46/14 24/45/14 26/47/14 25/48/14
f 25/48/15 26/47/15 28/49/15 27/50/15
f 27/50/16 28/49/16 30/51/16 29/52/16
f 29/52/17 30/51/17 32/53/17 31/54/17
f 31/54/18 32/53/18 34/55/18 33/56/18
f 33/56/19 34/55/19 36/57/19 35/58/19
f 35/58/20 36/57/20 38/59/20 37/60/20
f 24/61/21 22/62/21 40/63/21 38/64/21 36/65/21 34/66/21 32/67/21 30/68/21 28/69/21 26/70/21
f 37/60/22 38/59/22 40/71/22 39/72/22
f 39/72/23 40/71/23 22/73/23 21/74/23
f 21/75/24 23/76/24 25/77/24 27/78/24 29/79/24 31/80/24 33/81/24 35/82/24 37/83/24 39/84/24
o Cube.001_Cube.002
v -1.096672 -0.108115 1.547892
v -1.096672 0.139849 1.547892
v -1.096672 -0.108115 0.497452
v -1.096672 0.139849 0.497452
v 1.096672 -0.108115 1.547892
v 1.096672 0.139849 1.547892
v 1.096672 -0.108115 0.497452
v 1.096672 0.139849 0.497452
v -1.096672 -0.108115 1.472657
v -1.096672 0.139849 1.472657
v 1.096672 -0.108115 1.472657
v 1.096672 0.139849 1.472657
v -1.096672 0.139849 0.585583
v 1.096672 -0.108115 0.585583
v -1.096672 -0.108115 0.585583
v 1.096672 0.139849 0.585583
v -1.096672 -0.108115 1.314360
v 1.096672 0.139849 1.314360
v -1.096672 0.139849 1.314360
v 1.096672 -0.108115 1.314360
v -1.096672 0.139849 0.756246
v 1.096672 -0.108115 0.756246
v -1.096672 -0.108115 0.756246
v 1.096672 0.139849 0.756246
v 1.038546 0.375061 1.314360
v 1.038546 0.375061 1.472657
v -1.038546 0.375061 1.472657
v -1.038546 0.375061 0.756246
v -1.038546 0.375061 0.585583
v 1.038546 0.375061 0.585583
v -1.038546 0.375061 1.314360
v 1.038546 0.375061 0.756246
v -0.760490 -0.108115 0.497452
v -0.760490 0.139849 0.497452
v -0.760490 -0.108115 1.547892
v -0.760490 0.139849 1.547892
v -0.760490 0.139849 1.472657
v -0.760490 -0.108115 1.472657
v -0.760490 -0.108115 0.585583
v -0.760490 0.139849 0.585583
v -0.760490 -0.108115 1.314360
v -0.760490 0.139849 1.314360
v -0.760490 0.139849 0.756246
v -0.760490 -0.108115 0.756246
v -0.760490 0.438894 1.472657
v -0.760490 0.438894 0.585583
v -0.760490 0.438894 1.314360
v -0.760490 0.438894 0.756246
v 0.781996 0.139849 0.497452
v 0.781996 -0.108115 1.547892
v 0.781996 0.139849 1.472657
v 0.781996 0.139849 0.585583
v 0.781996 0.139849 1.314360
v 0.781996 0.139849 0.756246
v 0.781996 0.438894 1.472657
v 0.781996 0.438894 0.585583
v 0.781996 0.438894 1.314360
v 0.781996 0.438894 0.756246
v 0.781996 -0.108115 0.497452
v 0.781996 0.139849 1.547892
v 0.781996 -0.108115 1.472657
v 0.781996 -0.108115 0.585583
v 0.781996 -0.108115 1.314360
v 0.781996 -0.108115 0.756246
vt 0.375000 0.229025
vt 0.625000 0.229025
vt 0.625000 0.250000
vt 0.375000 0.250000
vt 0.375000 0.464133
vt 0.625000 0.464133
vt 0.625000 0.500000
vt 0.375000 0.500000
vt 0.375000 0.732094
vt 0.625000 0.732094
vt 0.625000 0.750000
vt 0.375000 0.750000
vt 0.375000 0.961682
vt 0.625000 0.961682
vt 0.625000 1.000000
vt 0.375000 1.000000
vt 0.339133 0.732094
vt 0.339133 0.750000
vt 0.836682 0.732094
vt 0.875000 0.732094
vt 0.875000 0.750000
vt 0.836682 0.750000
vt 0.625000 0.694420
vt 0.625000 0.694420
vt 0.625000 0.732094
vt 0.339133 0.694420
vt 0.375000 0.694420
vt 0.375000 0.000000
vt 0.625000 0.000000
vt 0.625000 0.017906
vt 0.375000 0.017906
vt 0.625000 0.520975
vt 0.375000 0.520975
vt 0.339133 0.500000
vt 0.339133 0.520975
vt 0.836682 0.500000
vt 0.875000 0.500000
vt 0.875000 0.520975
vt 0.836682 0.520975
vt 0.375000 0.188408
vt 0.625000 0.188408
vt 0.625000 0.055580
vt 0.375000 0.055580
vt 0.375000 0.561592
vt 0.625000 0.561592
vt 0.339133 0.561592
vt 0.836682 0.561592
vt 0.875000 0.561592
vt 0.875000 0.694420
vt 0.836682 0.694420
vt 0.625000 0.520975
vt 0.625000 0.561592
vt 0.836682 0.694420
vt 0.875000 0.694420
vt 0.875000 0.732094
vt 0.836681 0.732094
vt 0.836682 0.520975
vt 0.875000 0.520975
vt 0.875000 0.561592
vt 0.836682 0.561592
vt 0.625000 0.188408
vt 0.625000 0.229025
vt 0.660867 0.561592
vt 0.660867 0.561592
vt 0.660867 0.732095
vt 0.660867 0.732094
vt 0.625000 0.017906
vt 0.625000 0.055580
vt 0.660867 0.694420
vt 0.660867 0.694420
vt 0.660867 0.520975
vt 0.660867 0.520975
vt 0.125000 0.520975
vt 0.163318 0.520975
vt 0.163318 0.561592
vt 0.125000 0.561592
vt 0.163318 0.694420
vt 0.125000 0.694420
vt 0.660867 0.500000
vt 0.125000 0.500000
vt 0.163318 0.500000
vt 0.163318 0.732094
vt 0.125000 0.732094
vt 0.660867 0.750000
vt 0.163318 0.750000
vt 0.125000 0.750000
vt 0.375000 0.785867
vt 0.625000 0.785867
vt 0.625000 0.288318
vt 0.375000 0.288318
vn -1.0000 0.0000 0.0000
vn 0.0000 0.0000 -1.0000
vn 1.0000 0.0000 0.0000
vn 0.0000 0.0000 1.0000
vn 0.0000 -1.0000 0.0000
vn 0.0000 1.0000 0.0000
vn 0.9708 0.2399 0.0000
vn -0.2237 0.9746 0.0000
vn -0.9708 0.2399 0.0000
vn 0.2415 0.9704 0.0000
usemtl None
s off
f 55/85/25 53/86/25 44/87/25 43/88/25
f 99/89/26 89/90/26 48/91/26 47/92/26
f 51/93/27 52/94/27 46/95/27 45/96/27
f 75/97/28 76/98/28 42/99/28 41/100/28
f 101/101/29 51/93/29 45/96/29 90/102/29
f 77/103/30 50/104/30 42/105/30 76/106/30
f 52/94/31 58/107/31 65/108/31 66/109/31
f 103/110/29 60/111/29 51/93/29 101/101/29
f 60/111/27 58/107/27 52/94/27 51/93/27
f 41/112/25 42/113/25 50/114/25 49/115/25
f 47/92/27 48/91/27 56/116/27 54/117/27
f 99/118/29 47/92/29 54/117/29 102/119/29
f 74/120/30 44/121/30 53/122/30 80/123/30
f 63/124/25 61/125/25 53/86/25 55/85/25
f 49/115/25 50/114/25 59/126/25 57/127/25
f 62/128/27 64/129/27 58/107/27 60/111/27
f 104/130/29 62/128/29 60/111/29 103/110/29
f 83/131/30 61/132/30 59/133/30 82/134/30
f 64/129/31 56/116/31 70/135/31 72/136/31
f 102/119/29 54/117/29 62/128/29 104/130/29
f 54/117/27 56/116/27 64/129/27 62/128/27
f 57/127/25 59/126/25 61/125/25 63/124/25
f 87/137/32 71/138/32 67/139/32 85/140/32
f 86/141/32 69/142/32 68/143/32 88/144/32
f 80/123/26 53/122/26 69/142/26 86/141/26
f 82/134/26 59/133/26 71/138/26 87/137/26
f 53/86/33 61/125/33 68/145/33 69/146/33
f 94/147/28 64/129/28 72/136/28 98/148/28
f 91/149/28 52/94/28 66/109/28 95/150/28
f 59/126/33 50/114/33 67/151/33 71/152/33
f 50/104/28 77/103/28 85/140/28 67/139/28
f 61/132/28 83/131/28 88/144/28 68/143/28
f 93/153/26 82/134/26 87/137/26 97/154/26
f 92/155/26 80/123/26 86/141/26 96/156/26
f 96/156/30 86/141/30 88/144/30 98/148/30
f 97/154/30 87/137/30 85/140/30 95/150/30
f 55/157/29 79/158/29 84/159/29 63/160/29
f 94/147/30 83/131/30 82/134/30 93/153/30
f 63/160/29 84/159/29 81/161/29 57/162/29
f 89/163/30 74/120/30 80/123/30 92/155/30
f 43/164/29 73/165/29 79/158/29 55/157/29
f 57/162/29 81/161/29 78/166/29 49/167/29
f 91/149/30 77/103/30 76/106/30 100/168/30
f 49/167/29 78/166/29 75/169/29 41/170/29
f 90/171/28 100/172/28 76/98/28 75/97/28
f 43/88/26 44/87/26 74/173/26 73/174/26
f 45/96/28 46/95/28 100/172/28 90/171/28
f 52/94/30 91/149/30 100/168/30 46/95/30
f 48/91/30 89/163/30 92/155/30 56/116/30
f 64/129/30 94/147/30 93/153/30 58/107/30
f 65/108/34 97/154/34 95/150/34 66/109/34
f 70/135/34 96/156/34 98/148/34 72/136/34
f 56/116/26 92/155/26 96/156/26 70/135/26
f 58/107/26 93/153/26 97/154/26 65/108/26
f 77/103/28 91/149/28 95/150/28 85/140/28
f 83/131/28 94/147/28 98/148/28 88/144/28
f 79/158/29 102/119/29 104/130/29 84/159/29
f 84/159/29 104/130/29 103/110/29 81/161/29
f 73/165/29 99/118/29 102/119/29 79/158/29
f 81/161/29 103/110/29 101/101/29 78/166/29
f 78/166/29 101/101/29 90/102/29 75/169/29
f 73/174/26 74/173/26 89/90/26 99/89/26
