# Blender v2.80 (sub 75) OBJ File: 'Black Box.blend'
# www.blender.org
mtllib Black Box 1.mtl
o Cube_Cube.001
v -1.186607 -0.184887 1.973626
v -1.186607 0.184887 1.973626
v 1.186607 -0.184887 1.973626
v 1.186607 0.184887 1.973626
v -1.186607 -0.184887 1.648922
v -1.186607 0.184887 1.648922
v 1.186607 -0.184887 1.648922
v 1.186607 0.184887 1.648922
v -1.186607 0.184887 0.391053
v 1.186607 -0.184887 0.391053
v -1.186607 -0.184887 0.391053
v 1.186607 0.184887 0.391053
v 0.823355 -0.184887 1.973626
v 0.823355 0.184887 1.973626
v 0.823355 0.184887 1.648922
v 0.823355 -0.184887 1.648922
v 0.823355 -0.184887 0.391053
v 0.823355 0.184887 0.391053
v -0.785290 0.184887 1.973626
v -0.785290 -0.184887 1.648922
v -0.785290 -0.184887 0.391053
v -0.785290 -0.184887 1.973626
v -0.785290 0.184887 1.648922
v -0.785290 0.184887 0.391053
v -0.785290 1.379861 1.648922
v 0.823355 1.379861 1.648922
v -0.785290 1.379861 0.391053
v 0.823355 1.379861 0.391053
v -1.186607 0.184887 -1.334746
v 1.186607 -0.184887 -1.334746
v -1.186607 -0.184887 -1.334746
v 1.186607 0.184887 -1.334746
v 0.823355 0.184887 -1.334746
v 0.823355 -0.184887 -1.334746
v -0.785290 -0.184887 -1.334746
v -0.785290 0.184887 -1.334746
vt 0.375000 0.729435
vt 0.625000 0.729435
vt 0.625000 0.750000
vt 0.375000 0.750000
vt 0.375000 0.957724
vt 0.625000 0.957724
vt 0.625000 1.000000
vt 0.375000 1.000000
vt 0.336734 0.729435
vt 0.336734 0.750000
vt 0.832724 0.729435
vt 0.875000 0.729435
vt 0.875000 0.750000
vt 0.832724 0.750000
vt 0.832724 0.649767
vt 0.875000 0.649767
vt 0.336734 0.649767
vt 0.375000 0.649767
vt 0.625000 0.649767
vt 0.375000 0.000000
vt 0.625000 0.000000
vt 0.625000 0.020565
vt 0.375000 0.020565
vt 0.375000 0.540464
vt 0.625000 0.540464
vt 0.336734 0.540464
vt 0.832724 0.540464
vt 0.875000 0.540464
vt 0.625000 0.100233
vt 0.375000 0.100233
vt 0.663266 0.540464
vt 0.663266 0.649767
vt 0.167276 0.540464
vt 0.167276 0.649767
vt 0.167276 0.729435
vt 0.663266 0.729435
vt 0.663266 0.750000
vt 0.167276 0.750000
vt 0.625000 0.788266
vt 0.375000 0.788266
vt 0.125000 0.729435
vt 0.125000 0.750000
vt 0.125000 0.649767
vt 0.125000 0.540464
vt 0.663266 0.729435
vt 0.832724 0.729435
vt 0.663266 0.649767
vt 0.832724 0.649767
vt 0.625000 0.209536
vt 0.375000 0.209536
vn 1.0000 0.0000 0.0000
vn 0.0000 0.0000 1.0000
vn 0.0000 -1.0000 0.0000
vn 0.0000 1.0000 0.0000
vn -1.0000 0.0000 0.0000
vn 0.0000 0.0000 -1.0000
usemtl None
s off
f 7/1/1 8/2/1 4/3/1 3/4/1
f 22/5/2 19/6/2 2/7/2 1/8/2
f 16/9/3 7/1/3 3/4/3 13/10/3
f 23/11/4 6/12/4 2/13/4 19/14/4
f 24/15/4 9/16/4 6/12/4 23/11/4
f 17/17/3 10/18/3 7/1/3 16/9/3
f 10/18/1 12/19/1 8/2/1 7/1/1
f 1/20/5 2/21/5 6/22/5 5/23/5
f 30/24/1 32/25/1 12/19/1 10/18/1
f 34/26/3 30/24/3 10/18/3 17/17/3
f 36/27/4 29/28/4 9/16/4 24/15/4
f 5/23/5 6/22/5 9/29/5 11/30/5
f 32/25/4 33/31/4 18/32/4 12/19/4
f 35/33/3 34/26/3 17/17/3 21/34/3
f 21/34/3 17/17/3 16/9/3 20/35/3
f 12/19/4 18/32/4 15/36/4 8/2/4
f 8/2/4 15/36/4 14/37/4 4/3/4
f 20/35/3 16/9/3 13/10/3 22/38/3
f 3/4/2 4/3/2 14/39/2 13/40/2
f 5/41/3 20/35/3 22/38/3 1/42/3
f 11/43/3 21/34/3 20/35/3 5/41/3
f 31/44/3 35/33/3 21/34/3 11/43/3
f 33/31/4 36/27/4 24/15/4 18/32/4
f 23/11/2 15/36/2 26/45/2 25/46/2
f 15/36/4 23/11/4 19/14/4 14/37/4
f 13/40/2 14/39/2 19/6/2 22/5/2
f 28/47/4 27/48/4 25/46/4 26/45/4
f 15/36/1 18/32/1 28/47/1 26/45/1
f 18/32/6 24/15/6 27/48/6 28/47/6
f 24/15/5 23/11/5 25/46/5 27/48/5
f 11/30/5 9/29/5 29/49/5 31/50/5
f 31/50/6 29/28/6 36/27/6 33/31/6 32/25/6 30/24/6 34/26/6 35/33/6
o Cylinder_Cylinder.001
v 0.000000 1.315208 -1.010750
v 0.000000 1.315207 1.010750
v 0.325575 1.209422 -1.010750
v 0.325575 1.209422 1.010750
v 0.526792 0.932471 -1.010750
v 0.526792 0.932471 1.010750
v 0.526792 0.590141 -1.010750
v 0.526792 0.590141 1.010750
v 0.325575 0.313190 -1.010750
v 0.325575 0.313190 1.010750
v -0.000000 0.207404 -1.010750
v -0.000000 0.207404 1.010750
v -0.325575 0.313190 -1.010750
v -0.325575 0.313190 1.010750
v -0.526792 0.590141 -1.010750
v -0.526792 0.590141 1.010750
v -0.526792 0.932471 -1.010750
v -0.526792 0.932471 1.010750
v -0.325575 1.209422 -1.010750
v -0.325575 1.209422 1.010750
vt 1.000000 0.500000
vt 1.000000 1.000000
vt 0.900000 1.000000
vt 0.900000 0.500000
vt 0.800000 1.000000
vt 0.800000 0.500000
vt 0.700000 1.000000
vt 0.700000 0.500000
vt 0.600000 1.000000
vt 0.600000 0.500000
vt 0.500000 1.000000
vt 0.500000 0.500000
vt 0.400000 1.000000
vt 0.400000 0.500000
vt 0.300000 1.000000
vt 0.300000 0.500000
vt 0.200000 1.000000
vt 0.200000 0.500000
vt 0.391068 0.444164
vt 0.250000 0.490000
vt 0.108932 0.444164
vt 0.021746 0.324164
vt 0.021746 0.175836
vt 0.108932 0.055836
vt 0.250000 0.010000
vt 0.391068 0.055836
vt 0.478254 0.175836
vt 0.478254 0.324164
vt 0.100000 1.000000
vt 0.100000 0.500000
vt -0.000000 1.000000
vt -0.000000 0.500000
vt 0.750000 0.490000
vt 0.891068 0.444164
vt 0.978254 0.324164
vt 0.978254 0.175836
vt 0.891068 0.055836
vt 0.750000 0.010000
vt 0.608932 0.055836
vt 0.521746 0.175836
vt 0.521746 0.324164
vt 0.608932 0.444164
vn 0.3090 0.9511 0.0000
vn 0.8090 0.5878 0.0000
vn 1.0000 -0.0000 -0.0000
vn 0.8090 -0.5878 -0.0000
vn 0.3090 -0.9511 -0.0000
vn -0.3090 -0.9511 -0.0000
vn -0.8090 -0.5878 -0.0000
vn -1.0000 0.0000 0.0000
vn -0.0000 0.0000 1.0000
vn -0.8090 0.5878 0.0000
vn -0.3090 0.9511 0.0000
vn -0.0000 0.0000 -1.0000
usemtl None
s off
f 37/51/7 38/52/7 40/53/7 39/54/7
f 39/54/8 40/53/8 42/55/8 41/56/8
f 41/56/9 42/55/9 44/57/9 43/58/9
f 43/58/10 44/57/10 46/59/10 45/60/10
f 45/60/11 46/59/11 48/61/11 47/62/11
f 47/62/12 48/61/12 50/63/12 49/64/12
f 49/64/13 50/63/13 52/65/13 51/66/13
f 51/66/14 52/65/14 54/67/14 53/68/14
f 40/69/15 38/70/15 56/71/15 54/72/15 52/73/15 50/74/15 48/75/15 46/76/15 44/77/15 42/78/15
f 53/68/16 54/67/16 56/79/16 55/80/16
f 55/80/17 56/79/17 38/81/17 37/82/17
f 37/83/18 39/84/18 41/85/18 43/86/18 45/87/18 47/88/18 49/89/18 51/90/18 53/91/18 55/92/18
