# Blender v2.80 (sub 75) OBJ File: 'sub.blend'
# www.blender.org
mtllib sub-main wall.mtl
o Main_wall_Cube.008
v 4.911557 0.979777 1.334263
v 5.216923 0.979777 1.334263
v 4.911557 0.979777 1.200798
v 5.216923 0.979777 1.200798
v 4.911557 -2.678263 1.593210
v 5.216923 -2.678263 1.593210
v 4.911557 -2.678263 0.523428
v 5.216923 -2.678263 0.523428
v 4.911557 -0.446858 1.458563
v 5.216923 -0.446858 1.458563
v 4.911557 -0.446858 1.935481
v 5.216923 -0.446858 1.935481
v 4.911557 0.065267 1.385219
v 5.216923 0.065267 1.843801
v 5.216923 0.065267 1.385219
v 4.911557 0.065267 1.843801
v 4.911557 0.473748 1.200798
v 5.216923 0.473748 1.691001
v 5.216923 0.473748 1.200798
v 4.911557 0.473748 1.691001
v 5.216923 -0.837049 1.464675
v 4.911557 -0.837049 1.941593
v 4.911557 -0.837049 1.464675
v 5.216923 -0.837049 1.941593
v 5.216923 -1.154080 1.372995
v 4.911557 -1.154080 1.941593
v 4.911557 -1.154080 1.372995
v 5.216923 -1.154080 1.941593
v 5.216923 -1.891784 0.963492
v 4.911557 -1.891784 1.813241
v 4.911557 -1.891784 0.963492
v 5.216923 -1.891784 1.813241
v 5.216923 0.979777 -2.638183
v 4.911557 0.979777 -2.638183
v 4.911557 0.473748 -2.638183
v 5.216923 0.473748 -2.638183
v 4.911557 0.979777 0.486094
v 4.911557 0.473748 0.486094
v 5.216923 0.473748 0.486094
v 5.216923 0.979777 0.486094
v 4.911557 0.979777 -0.157140
v 5.216923 0.979777 -0.157140
v 4.911557 0.473748 -0.157140
v 5.216923 0.473748 -0.157140
v 4.911557 0.979777 -1.913269
v 5.216923 0.979777 -1.913269
v 4.911557 0.473748 -1.913269
v 5.216923 0.473748 -1.913269
v 5.216923 -0.155787 -2.638183
v 4.911557 -0.155787 -2.638183
v 4.911557 -0.155787 -0.068293
v 4.911557 -0.155787 0.397248
v 5.216923 -0.155787 -0.068293
v 5.216923 -0.155787 0.397248
v 4.911557 -0.155787 -2.023624
v 5.216923 -0.155787 -2.023624
v 5.216923 -0.699754 -2.638183
v 4.911557 -0.699754 -2.638183
v 4.911557 -0.699754 -0.035311
v 4.911557 -0.699754 0.364266
v 5.216923 -0.699754 -0.035311
v 5.216923 -0.699754 0.364266
v 4.911557 -0.699754 -2.044847
v 5.216923 -0.699754 -2.044847
v 5.216923 -1.145930 -2.638183
v 4.911557 -1.145930 -2.638183
v 4.911557 -1.145930 -0.087705
v 4.911557 -1.145930 0.416660
v 5.216923 -1.145930 -0.087705
v 5.216923 -1.145930 0.416660
v 4.911557 -1.145930 -1.968447
v 5.216923 -1.145930 -1.968447
v 5.216923 -1.451530 -2.638183
v 4.911557 -1.451530 -2.638183
v 4.911557 -1.451530 -0.157140
v 4.911557 -1.451530 0.486094
v 5.216923 -1.451530 -0.157140
v 5.216923 -1.451530 0.486094
v 4.911557 -1.451530 -1.913269
v 5.216923 -1.451530 -1.913269
v 5.216923 -2.674906 -2.638183
v 4.911557 -2.674906 -2.638183
v 4.911557 -2.674906 -0.157140
v 4.911557 -2.674906 0.486094
v 5.216923 -2.674906 -0.157140
v 5.216923 -2.674906 0.486094
v 4.911557 -2.674906 -1.913269
v 5.216923 -2.674906 -1.913269
v 8.755951 0.979777 1.334263
v 9.061317 0.979777 1.334263
v 8.755951 0.979777 1.200798
v 9.061317 0.979777 1.200798
v 8.755951 -2.678263 1.593210
v 9.061317 -2.678263 1.593210
v 8.755951 -2.678263 0.523428
v 9.061317 -2.678263 0.523428
v 8.755951 -0.446858 1.458563
v 9.061317 -0.446858 1.458563
v 8.755951 -0.446858 1.935481
v 9.061317 -0.446858 1.935481
v 8.755951 0.065267 1.385219
v 9.061317 0.065267 1.843801
v 9.061317 0.065267 1.385219
v 8.755951 0.065267 1.843801
v 8.755951 0.473748 1.200798
v 9.061317 0.473748 1.691002
v 9.061317 0.473748 1.200798
v 8.755951 0.473748 1.691002
v 9.061317 -0.837049 1.464675
v 8.755951 -0.837049 1.941593
v 8.755951 -0.837049 1.464675
v 9.061317 -0.837049 1.941593
v 9.061317 -1.154079 1.372995
v 8.755951 -1.154079 1.941593
v 8.755951 -1.154079 1.372995
v 9.061317 -1.154079 1.941593
v 9.061317 -1.891784 0.963492
v 8.755951 -1.891784 1.813241
v 8.755951 -1.891784 0.963492
v 9.061317 -1.891784 1.813241
v 9.061317 0.979777 -2.638182
v 8.755951 0.979777 -2.638182
v 8.755951 0.473748 -2.638182
v 9.061317 0.473748 -2.638182
v 8.755951 0.979777 0.486094
v 8.755951 0.473748 0.486094
v 9.061317 0.473748 0.486094
v 9.061317 0.979777 0.486094
v 8.755951 0.979777 -0.157139
v 9.061317 0.979777 -0.157139
v 8.755951 0.473748 -0.157139
v 9.061317 0.473748 -0.157139
v 8.755951 0.979777 -1.913269
v 9.061317 0.979777 -1.913269
v 8.755951 0.473748 -1.913269
v 9.061317 0.473748 -1.913269
v 9.061317 -0.155787 -2.638182
v 8.755951 -0.155787 -2.638182
v 8.755951 -0.155787 -0.068293
v 8.755951 -0.155787 0.397248
v 9.061317 -0.155787 -0.068293
v 9.061317 -0.155787 0.397248
v 8.755951 -0.155787 -2.023624
v 9.061317 -0.155787 -2.023624
v 9.061317 -0.699754 -2.638182
v 8.755951 -0.699754 -2.638182
v 8.755951 -0.699754 -0.035311
v 8.755951 -0.699754 0.364266
v 9.061317 -0.699754 -0.035311
v 9.061317 -0.699754 0.364266
v 8.755951 -0.699754 -2.044846
v 9.061317 -0.699754 -2.044846
v 9.061317 -1.145930 -2.638182
v 8.755951 -1.145930 -2.638182
v 8.755951 -1.145930 -0.087705
v 8.755951 -1.145930 0.416660
v 9.061317 -1.145930 -0.087705
v 9.061317 -1.145930 0.416660
v 8.755951 -1.145930 -1.968446
v 9.061317 -1.145930 -1.968446
v 9.061317 -1.451530 -2.638182
v 8.755951 -1.451530 -2.638182
v 8.755951 -1.451530 -0.157139
v 8.755951 -1.451530 0.486094
v 9.061317 -1.451530 -0.157139
v 9.061317 -1.451530 0.486094
v 8.755951 -1.451530 -1.913269
v 9.061317 -1.451530 -1.913269
v 9.061317 -2.674906 -2.638182
v 8.755951 -2.674906 -2.638182
v 8.755951 -2.674906 -0.157139
v 8.755951 -2.674906 0.486094
v 9.061317 -2.674906 -0.157139
v 9.061317 -2.674906 0.486094
v 8.755951 -2.674906 -1.913269
v 9.061317 -2.674906 -1.913269
vt 0.375000 0.000000
vt 0.625000 0.000000
vt 0.625000 0.250000
vt 0.375000 0.250000
vt 0.375000 0.446250
vt 0.625000 0.446250
vt 0.625000 0.500000
vt 0.375000 0.500000
vt 0.625000 0.750000
vt 0.375000 0.750000
vt 0.375000 0.965417
vt 0.625000 0.965417
vt 0.625000 1.000000
vt 0.375000 1.000000
vt 0.321250 0.500000
vt 0.321250 0.750000
vt 0.840417 0.500000
vt 0.875000 0.500000
vt 0.875000 0.750000
vt 0.840417 0.750000
vt 0.750833 0.500000
vt 0.777500 0.500000
vt 0.777500 0.750000
vt 0.750833 0.750000
vt 0.187500 0.500000
vt 0.222500 0.500000
vt 0.222500 0.750000
vt 0.187500 0.750000
vt 0.375000 0.875833
vt 0.625000 0.875833
vt 0.625000 0.902500
vt 0.375000 0.902500
vt 0.375000 0.312500
vt 0.625000 0.312500
vt 0.625000 0.347500
vt 0.375000 0.347500
vt 0.375000 0.284583
vt 0.625000 0.284583
vt 0.159583 0.500000
vt 0.159583 0.750000
vt 0.812500 0.500000
vt 0.812500 0.750000
vt 0.625000 0.937500
vt 0.375000 0.937500
vt 0.125000 0.500000
vt 0.125000 0.750000
vt 0.159583 0.500000
vt 0.125000 0.500000
vt 0.125000 0.500000
vt 0.159583 0.500000
vt 0.375000 0.854167
vt 0.625000 0.854167
vt 0.729167 0.500000
vt 0.729167 0.750000
vt 0.249167 0.500000
vt 0.249167 0.750000
vt 0.625000 0.374167
vt 0.375000 0.374167
vt 0.678750 0.500000
vt 0.678750 0.750000
vt 0.375000 0.803750
vt 0.625000 0.803750
vt 0.270833 0.500000
vt 0.270833 0.750000
vt 0.625000 0.395833
vt 0.375000 0.395833
vt 0.375000 0.250000
vt 0.625000 0.250000
vt 0.625000 0.284583
vt 0.375000 0.284583
vt 0.159583 0.500000
vt 0.159583 0.500000
vt 0.375000 0.250000
vt 0.625000 0.250000
vt 0.875000 0.500000
vt 0.840417 0.500000
vt 0.840417 0.500000
vt 0.875000 0.500000
vt 0.840417 0.500000
vt 0.875000 0.500000
vt 0.625000 0.250000
vt 0.375000 0.250000
vt 0.375000 0.284583
vt 0.625000 0.284583
vt 0.125000 0.500000
vt 0.159583 0.500000
vt 0.840417 0.500000
vt 0.875000 0.500000
vt 0.625000 0.250000
vt 0.375000 0.250000
vt 0.625000 0.284583
vt 0.375000 0.284583
vt 0.375000 0.284583
vt 0.625000 0.284583
vt 0.125000 0.500000
vt 0.159583 0.500000
vt 0.625000 0.284583
vt 0.375000 0.284583
vt 0.159583 0.500000
vt 0.159583 0.500000
vt 0.375000 0.284583
vt 0.625000 0.284583
vt 0.625000 0.284583
vt 0.375000 0.284583
vt 0.159583 0.500000
vt 0.159583 0.500000
vt 0.840417 0.500000
vt 0.840417 0.500000
vt 0.625000 0.284583
vt 0.375000 0.284583
vt 0.375000 0.284583
vt 0.625000 0.284583
vt 0.840417 0.500000
vt 0.840417 0.500000
vt 0.840417 0.500000
vt 0.840417 0.500000
vt 0.840417 0.500000
vt 0.840417 0.500000
vt 0.375000 0.284583
vt 0.625000 0.284583
vt 0.625000 0.284583
vt 0.375000 0.284583
vt 0.375000 0.284583
vt 0.625000 0.284583
vt 0.159583 0.500000
vt 0.159583 0.500000
vt 0.840417 0.500000
vt 0.840417 0.500000
vt 0.625000 0.284583
vt 0.375000 0.284583
vt 0.625000 0.284583
vt 0.375000 0.284583
vt 0.840417 0.500000
vt 0.840417 0.500000
vt 0.840417 0.500000
vt 0.840417 0.500000
vt 0.625000 0.284583
vt 0.375000 0.284583
vt 0.375000 0.284583
vt 0.625000 0.284583
vt 0.159583 0.500000
vt 0.159583 0.500000
vt 0.375000 0.284583
vt 0.625000 0.284583
vt 0.159583 0.500000
vt 0.159583 0.500000
vt 0.625000 0.284583
vt 0.375000 0.284583
vt 0.375000 0.284583
vt 0.625000 0.284583
vt 0.159583 0.500000
vt 0.159583 0.500000
vt 0.159583 0.500000
vt 0.159583 0.500000
vt 0.840417 0.500000
vt 0.840417 0.500000
vt 0.625000 0.284583
vt 0.375000 0.284583
vt 0.375000 0.284583
vt 0.625000 0.284583
vt 0.159583 0.500000
vt 0.159583 0.500000
vt 0.625000 0.284583
vt 0.375000 0.284583
vt 0.375000 0.284583
vt 0.625000 0.284583
vt 0.375000 0.284583
vt 0.625000 0.284583
vt 0.159583 0.500000
vt 0.159583 0.500000
vt 0.840417 0.500000
vt 0.840417 0.500000
vt 0.840417 0.500000
vt 0.840417 0.500000
vt 0.375000 0.000000
vt 0.625000 0.000000
vt 0.625000 0.250000
vt 0.375000 0.250000
vt 0.375000 0.446250
vt 0.625000 0.446250
vt 0.625000 0.500000
vt 0.375000 0.500000
vt 0.625000 0.750000
vt 0.375000 0.750000
vt 0.375000 0.965417
vt 0.625000 0.965417
vt 0.625000 1.000000
vt 0.375000 1.000000
vt 0.321250 0.500000
vt 0.321250 0.750000
vt 0.840417 0.500000
vt 0.875000 0.500000
vt 0.875000 0.750000
vt 0.840417 0.750000
vt 0.750833 0.500000
vt 0.777500 0.500000
vt 0.777500 0.750000
vt 0.750833 0.750000
vt 0.187500 0.500000
vt 0.222500 0.500000
vt 0.222500 0.750000
vt 0.187500 0.750000
vt 0.375000 0.875833
vt 0.625000 0.875833
vt 0.625000 0.902500
vt 0.375000 0.902500
vt 0.375000 0.312500
vt 0.625000 0.312500
vt 0.625000 0.347500
vt 0.375000 0.347500
vt 0.375000 0.284583
vt 0.625000 0.284583
vt 0.159583 0.500000
vt 0.159583 0.750000
vt 0.812500 0.500000
vt 0.812500 0.750000
vt 0.625000 0.937500
vt 0.375000 0.937500
vt 0.125000 0.500000
vt 0.125000 0.750000
vt 0.159583 0.500000
vt 0.125000 0.500000
vt 0.125000 0.500000
vt 0.159583 0.500000
vt 0.375000 0.854167
vt 0.625000 0.854167
vt 0.729167 0.500000
vt 0.729167 0.750000
vt 0.249167 0.500000
vt 0.249167 0.750000
vt 0.625000 0.374167
vt 0.375000 0.374167
vt 0.678750 0.500000
vt 0.678750 0.750000
vt 0.375000 0.803750
vt 0.625000 0.803750
vt 0.270833 0.500000
vt 0.270833 0.750000
vt 0.625000 0.395833
vt 0.375000 0.395833
vt 0.375000 0.250000
vt 0.625000 0.250000
vt 0.625000 0.284583
vt 0.375000 0.284583
vt 0.159583 0.500000
vt 0.159583 0.500000
vt 0.375000 0.250000
vt 0.625000 0.250000
vt 0.875000 0.500000
vt 0.840417 0.500000
vt 0.840417 0.500000
vt 0.875000 0.500000
vt 0.840417 0.500000
vt 0.875000 0.500000
vt 0.625000 0.250000
vt 0.375000 0.250000
vt 0.375000 0.284583
vt 0.625000 0.284583
vt 0.125000 0.500000
vt 0.159583 0.500000
vt 0.840417 0.500000
vt 0.875000 0.500000
vt 0.625000 0.250000
vt 0.375000 0.250000
vt 0.625000 0.284583
vt 0.375000 0.284583
vt 0.375000 0.284583
vt 0.625000 0.284583
vt 0.125000 0.500000
vt 0.159583 0.500000
vt 0.625000 0.284583
vt 0.375000 0.284583
vt 0.159583 0.500000
vt 0.159583 0.500000
vt 0.375000 0.284583
vt 0.625000 0.284583
vt 0.625000 0.284583
vt 0.375000 0.284583
vt 0.159583 0.500000
vt 0.159583 0.500000
vt 0.840417 0.500000
vt 0.840417 0.500000
vt 0.625000 0.284583
vt 0.375000 0.284583
vt 0.375000 0.284583
vt 0.625000 0.284583
vt 0.840417 0.500000
vt 0.840417 0.500000
vt 0.840417 0.500000
vt 0.840417 0.500000
vt 0.840417 0.500000
vt 0.840417 0.500000
vt 0.375000 0.284583
vt 0.625000 0.284583
vt 0.625000 0.284583
vt 0.375000 0.284583
vt 0.375000 0.284583
vt 0.625000 0.284583
vt 0.159583 0.500000
vt 0.159583 0.500000
vt 0.840417 0.500000
vt 0.840417 0.500000
vt 0.625000 0.284583
vt 0.375000 0.284583
vt 0.625000 0.284583
vt 0.375000 0.284583
vt 0.840417 0.500000
vt 0.840417 0.500000
vt 0.840417 0.500000
vt 0.840417 0.500000
vt 0.625000 0.284583
vt 0.375000 0.284583
vt 0.375000 0.284583
vt 0.625000 0.284583
vt 0.159583 0.500000
vt 0.159583 0.500000
vt 0.375000 0.284583
vt 0.625000 0.284583
vt 0.159583 0.500000
vt 0.159583 0.500000
vt 0.625000 0.284583
vt 0.375000 0.284583
vt 0.375000 0.284583
vt 0.625000 0.284583
vt 0.159583 0.500000
vt 0.159583 0.500000
vt 0.159583 0.500000
vt 0.159583 0.500000
vt 0.840417 0.500000
vt 0.840417 0.500000
vt 0.625000 0.284583
vt 0.375000 0.284583
vt 0.375000 0.284583
vt 0.625000 0.284583
vt 0.159583 0.500000
vt 0.159583 0.500000
vt 0.625000 0.284583
vt 0.375000 0.284583
vt 0.375000 0.284583
vt 0.625000 0.284583
vt 0.375000 0.284583
vt 0.625000 0.284583
vt 0.159583 0.500000
vt 0.159583 0.500000
vt 0.840417 0.500000
vt 0.840417 0.500000
vt 0.840417 0.500000
vt 0.840417 0.500000
vn 0.0000 1.0000 0.0000
vn 0.0000 0.4883 -0.8727
vn 0.0000 -1.0000 0.0000
vn 0.0000 0.5762 0.8173
vn -1.0000 0.0000 0.0000
vn 1.0000 0.0000 0.0000
vn -0.0000 0.0157 0.9999
vn 0.0000 -0.1418 -0.9899
vn 0.0000 -0.4115 -0.9114
vn 0.0000 0.1762 0.9844
vn 0.0000 0.3504 0.9366
vn -0.0000 0.0000 1.0000
vn -0.0000 -0.0157 -0.9999
vn 0.0000 -0.1714 0.9852
vn 0.0000 0.2778 -0.9606
vn -0.0000 -0.2694 0.9630
vn 0.0000 0.4853 -0.8743
vn 0.0000 0.0000 -1.0000
vn 0.0000 -0.1727 0.9850
vn 0.0000 -0.0390 0.9992
vn 0.0000 -0.1397 -0.9902
vn 0.0000 -0.1397 0.9902
vn 0.0000 0.1166 -0.9932
vn 0.0000 -0.0605 0.9982
vn 0.0000 -0.0605 -0.9982
vn 0.0000 0.2216 -0.9751
vn 0.0000 0.1688 0.9857
vn 0.0000 0.1166 0.9932
vn 0.0000 0.1777 0.9841
vn 0.0000 0.2216 0.9751
usemtl None
s off
f 1/1/1 2/2/1 4/3/1 3/4/1
f 31/5/2 29/6/2 8/7/2 7/8/2
f 7/8/3 8/7/3 6/9/3 5/10/3
f 20/11/4 18/12/4 2/13/4 1/14/4
f 31/15/5 7/8/5 5/10/5 30/16/5
f 19/17/6 4/18/6 2/19/6 18/20/6
f 21/21/6 10/22/6 12/23/6 24/24/6
f 13/25/5 9/26/5 11/27/5 16/28/5
f 22/29/7 24/30/7 12/31/7 11/32/7
f 13/33/8 15/34/8 10/35/8 9/36/8
f 17/37/9 19/38/9 15/34/9 13/33/9
f 17/39/5 13/25/5 16/28/5 20/40/5
f 10/22/6 15/41/6 14/42/6 12/23/6
f 11/32/10 12/31/10 14/43/10 16/44/10
f 3/45/5 17/39/5 20/40/5 1/46/5
f 47/47/5 45/48/5 34/49/5 35/50/5
f 15/41/6 19/17/6 18/20/6 14/42/6
f 16/44/11 14/43/11 18/12/11 20/11/11
f 26/51/12 28/52/12 24/30/12 22/29/12
f 25/53/6 21/21/6 24/24/6 28/54/6
f 9/26/5 23/55/5 22/56/5 11/27/5
f 9/36/13 10/35/13 21/57/13 23/58/13
f 29/59/6 25/53/6 28/54/6 32/60/6
f 30/61/14 32/62/14 28/52/14 26/51/14
f 23/55/5 27/63/5 26/64/5 22/56/5
f 23/58/15 21/57/15 25/65/15 27/66/15
f 5/10/16 6/9/16 32/62/16 30/61/16
f 8/7/6 29/59/6 32/60/6 6/9/6
f 27/63/5 31/15/5 30/16/5 26/64/5
f 27/66/17 25/65/17 29/6/17 31/5/17
f 34/67/18 33/68/18 36/69/18 35/70/18
f 47/47/5 35/50/5 50/71/5 55/72/5
f 45/73/1 46/74/1 33/68/1 34/67/1
f 46/75/6 48/76/6 36/77/6 33/78/6
f 4/18/6 19/17/6 39/79/6 40/80/6
f 3/4/1 4/3/1 40/81/1 37/82/1
f 19/38/3 17/37/3 38/83/3 39/84/3
f 17/39/5 3/45/5 37/85/5 38/86/5
f 40/80/6 39/79/6 44/87/6 42/88/6
f 37/82/1 40/81/1 42/89/1 41/90/1
f 48/91/19 47/92/19 55/93/19 56/94/19
f 38/86/5 37/85/5 41/95/5 43/96/5
f 42/88/6 44/87/6 48/76/6 46/75/6
f 41/90/1 42/89/1 46/74/1 45/73/1
f 44/97/3 43/98/3 47/92/3 48/91/3
f 43/96/5 41/95/5 45/48/5 47/47/5
f 55/72/5 50/71/5 58/99/5 63/100/5
f 56/94/20 55/93/20 63/101/20 64/102/20
f 43/98/21 44/97/21 53/103/21 51/104/21
f 38/86/5 43/96/5 51/105/5 52/106/5
f 36/77/6 48/76/6 56/107/6 49/108/6
f 35/70/18 36/69/18 49/109/18 50/110/18
f 39/84/22 38/83/22 52/111/22 54/112/22
f 44/87/6 39/79/6 54/113/6 53/114/6
f 61/115/6 62/116/6 70/117/6 69/118/6
f 59/119/23 61/120/23 69/121/23 67/122/23
f 54/112/24 52/111/24 60/123/24 62/124/24
f 52/106/5 51/105/5 59/125/5 60/126/5
f 49/108/6 56/107/6 64/127/6 57/128/6
f 51/104/25 53/103/25 61/120/25 59/119/25
f 53/114/6 54/113/6 62/116/6 61/115/6
f 50/110/18 49/109/18 57/129/18 58/130/18
f 67/122/26 69/121/26 77/131/26 75/132/26
f 65/133/6 72/134/6 80/135/6 73/136/6
f 58/130/18 57/129/18 65/137/18 66/138/18
f 64/102/27 63/101/27 71/139/27 72/140/27
f 63/100/5 58/99/5 66/141/5 71/142/5
f 62/124/28 60/123/28 68/143/28 70/144/28
f 60/126/5 59/125/5 67/145/5 68/146/5
f 57/128/6 64/127/6 72/134/6 65/133/6
f 78/147/12 76/148/12 84/149/12 86/150/12
f 79/151/5 74/152/5 82/153/5 87/154/5
f 69/118/6 70/117/6 78/155/6 77/156/6
f 66/138/18 65/137/18 73/157/18 74/158/18
f 72/140/29 71/139/29 79/159/29 80/160/29
f 71/142/5 66/141/5 74/152/5 79/151/5
f 70/144/30 68/143/30 76/148/30 78/147/30
f 68/146/5 67/145/5 75/161/5 76/162/5
f 88/163/3 87/164/3 82/165/3 81/166/3
f 86/150/3 84/149/3 83/167/3 85/168/3
f 76/162/5 75/161/5 83/169/5 84/170/5
f 73/136/6 80/135/6 88/171/6 81/172/6
f 75/132/18 77/131/18 85/168/18 83/167/18
f 77/156/6 78/155/6 86/173/6 85/174/6
f 74/158/18 73/157/18 81/166/18 82/165/18
f 80/160/12 79/159/12 87/164/12 88/163/12
f 89/175/1 90/176/1 92/177/1 91/178/1
f 119/179/2 117/180/2 96/181/2 95/182/2
f 95/182/3 96/181/3 94/183/3 93/184/3
f 108/185/4 106/186/4 90/187/4 89/188/4
f 119/189/5 95/182/5 93/184/5 118/190/5
f 107/191/6 92/192/6 90/193/6 106/194/6
f 109/195/6 98/196/6 100/197/6 112/198/6
f 101/199/5 97/200/5 99/201/5 104/202/5
f 110/203/7 112/204/7 100/205/7 99/206/7
f 101/207/8 103/208/8 98/209/8 97/210/8
f 105/211/9 107/212/9 103/208/9 101/207/9
f 105/213/5 101/199/5 104/202/5 108/214/5
f 98/196/6 103/215/6 102/216/6 100/197/6
f 99/206/10 100/205/10 102/217/10 104/218/10
f 91/219/5 105/213/5 108/214/5 89/220/5
f 135/221/5 133/222/5 122/223/5 123/224/5
f 103/215/6 107/191/6 106/194/6 102/216/6
f 104/218/11 102/217/11 106/186/11 108/185/11
f 114/225/12 116/226/12 112/204/12 110/203/12
f 113/227/6 109/195/6 112/198/6 116/228/6
f 97/200/5 111/229/5 110/230/5 99/201/5
f 97/210/13 98/209/13 109/231/13 111/232/13
f 117/233/6 113/227/6 116/228/6 120/234/6
f 118/235/14 120/236/14 116/226/14 114/225/14
f 111/229/5 115/237/5 114/238/5 110/230/5
f 111/232/15 109/231/15 113/239/15 115/240/15
f 93/184/16 94/183/16 120/236/16 118/235/16
f 96/181/6 117/233/6 120/234/6 94/183/6
f 115/237/5 119/189/5 118/190/5 114/238/5
f 115/240/17 113/239/17 117/180/17 119/179/17
f 122/241/18 121/242/18 124/243/18 123/244/18
f 135/221/5 123/224/5 138/245/5 143/246/5
f 133/247/1 134/248/1 121/242/1 122/241/1
f 134/249/6 136/250/6 124/251/6 121/252/6
f 92/192/6 107/191/6 127/253/6 128/254/6
f 91/178/1 92/177/1 128/255/1 125/256/1
f 107/212/3 105/211/3 126/257/3 127/258/3
f 105/213/5 91/219/5 125/259/5 126/260/5
f 128/254/6 127/253/6 132/261/6 130/262/6
f 125/256/1 128/255/1 130/263/1 129/264/1
f 136/265/19 135/266/19 143/267/19 144/268/19
f 126/260/5 125/259/5 129/269/5 131/270/5
f 130/262/6 132/261/6 136/250/6 134/249/6
f 129/264/1 130/263/1 134/248/1 133/247/1
f 132/271/3 131/272/3 135/266/3 136/265/3
f 131/270/5 129/269/5 133/222/5 135/221/5
f 143/246/5 138/245/5 146/273/5 151/274/5
f 144/268/20 143/267/20 151/275/20 152/276/20
f 131/272/21 132/271/21 141/277/21 139/278/21
f 126/260/5 131/270/5 139/279/5 140/280/5
f 124/251/6 136/250/6 144/281/6 137/282/6
f 123/244/18 124/243/18 137/283/18 138/284/18
f 127/258/22 126/257/22 140/285/22 142/286/22
f 132/261/6 127/253/6 142/287/6 141/288/6
f 149/289/6 150/290/6 158/291/6 157/292/6
f 147/293/23 149/294/23 157/295/23 155/296/23
f 142/286/24 140/285/24 148/297/24 150/298/24
f 140/280/5 139/279/5 147/299/5 148/300/5
f 137/282/6 144/281/6 152/301/6 145/302/6
f 139/278/25 141/277/25 149/294/25 147/293/25
f 141/288/6 142/287/6 150/290/6 149/289/6
f 138/284/18 137/283/18 145/303/18 146/304/18
f 155/296/26 157/295/26 165/305/26 163/306/26
f 153/307/6 160/308/6 168/309/6 161/310/6
f 146/304/18 145/303/18 153/311/18 154/312/18
f 152/276/27 151/275/27 159/313/27 160/314/27
f 151/274/5 146/273/5 154/315/5 159/316/5
f 150/298/28 148/297/28 156/317/28 158/318/28
f 148/300/5 147/299/5 155/319/5 156/320/5
f 145/302/6 152/301/6 160/308/6 153/307/6
f 166/321/12 164/322/12 172/323/12 174/324/12
f 167/325/5 162/326/5 170/327/5 175/328/5
f 157/292/6 158/291/6 166/329/6 165/330/6
f 154/312/18 153/311/18 161/331/18 162/332/18
f 160/314/29 159/313/29 167/333/29 168/334/29
f 159/316/5 154/315/5 162/326/5 167/325/5
f 158/318/30 156/317/30 164/322/30 166/321/30
f 156/320/5 155/319/5 163/335/5 164/336/5
f 176/337/3 175/338/3 170/339/3 169/340/3
f 174/324/3 172/323/3 171/341/3 173/342/3
f 164/336/5 163/335/5 171/343/5 172/344/5
f 161/310/6 168/309/6 176/345/6 169/346/6
f 163/306/18 165/305/18 173/342/18 171/341/18
f 165/330/6 166/329/6 174/347/6 173/348/6
f 162/332/18 161/331/18 169/340/18 170/339/18
f 168/334/12 167/333/12 175/338/12 176/337/12
