# Blender v2.80 (sub 75) OBJ File: 'sub.blend'
# www.blender.org
mtllib sub-bars.mtl
o Bars_Cube.011
v 4.631140 -1.179571 1.813535
v 4.936507 -1.179571 1.813535
v 4.631140 -1.179571 -2.650972
v 4.936507 -1.179571 -2.650972
v 4.631140 -1.179571 0.170338
v 4.936507 -1.179571 0.170338
v 4.936507 0.211030 0.170338
v 4.936507 0.211030 -2.650972
v 4.631140 0.211030 -2.650972
v 4.631140 0.211030 0.170338
v 4.936507 0.527876 0.170338
v 4.936507 0.527876 -2.650972
v 4.631140 0.527876 -2.650972
v 4.631140 0.527876 0.170338
v 4.631140 -1.486403 -2.650972
v 4.936507 -1.486403 -2.650972
v 4.631140 -1.486403 1.813535
v 4.936507 -1.486403 1.813535
v 4.936507 -1.486403 0.170338
v 4.631140 -1.486403 0.170338
v 5.067291 -1.179571 0.170338
v 5.067291 -1.179571 -2.650972
v 5.067291 -1.486403 1.813535
v 5.067291 -1.179571 1.813535
v 5.067291 0.211030 0.170338
v 5.067291 0.211030 -2.650972
v 5.067291 0.527876 0.170338
v 5.067291 0.527876 -2.650972
v 5.067291 -1.486403 -2.650972
v 5.067291 -1.486403 0.170338
v 4.631140 -1.179571 0.403634
v 4.936507 -1.179571 0.403634
v 4.936507 -1.486403 0.403634
v 4.631140 -1.486403 0.403634
v 5.067291 -1.179571 0.403634
v 5.067291 -1.486403 0.403634
v 8.780077 -1.486403 1.813535
v 8.780077 -1.179571 1.813535
v 8.780077 -1.486403 0.403634
v 8.780077 -1.179571 0.403634
v 8.868366 -1.179571 1.813535
v 9.173733 -1.179571 1.813535
v 8.868366 -1.179571 -2.650972
v 9.173733 -1.179571 -2.650972
v 8.868366 -1.179571 0.170338
v 9.173733 -1.179571 0.170338
v 9.173733 0.211030 0.170338
v 9.173733 0.211030 -2.650972
v 8.868366 0.211030 -2.650972
v 8.868366 0.211030 0.170338
v 9.173733 0.527875 0.170338
v 9.173733 0.527875 -2.650972
v 8.868366 0.527875 -2.650972
v 8.868366 0.527875 0.170338
v 8.868366 -1.486403 -2.650972
v 9.173733 -1.486403 -2.650972
v 8.868366 -1.486403 1.813535
v 9.173733 -1.486403 1.813535
v 9.173733 -1.486403 0.170338
v 8.868366 -1.486403 0.170338
v 9.304518 -1.179571 0.170338
v 9.304518 -1.179571 -2.650972
v 9.304518 -1.486403 1.813535
v 9.304518 -1.179571 1.813535
v 9.304518 0.211030 0.170338
v 9.304518 0.211030 -2.650972
v 9.304518 0.527875 0.170338
v 9.304518 0.527875 -2.650972
v 9.304518 -1.486403 -2.650972
v 9.304518 -1.486403 0.170338
v 8.868366 -1.179571 0.404937
v 9.173733 -1.179571 0.404937
v 9.173733 -1.486403 0.404937
v 8.868366 -1.486403 0.404937
v 9.304518 -1.179571 0.404937
v 9.304518 -1.486403 0.404937
v 5.067291 -1.486403 1.903002
v 5.067291 -1.179571 1.973096
v 8.780077 -1.486403 1.903002
v 8.780077 -1.179571 1.973096
v 5.067291 -1.893321 1.757334
v 8.780077 -1.893321 1.757334
v 5.067291 -1.893321 1.835348
v 8.780077 -1.893321 1.835348
v 5.067291 -2.695853 1.432835
v 8.780077 -2.695853 1.432835
v 5.067291 -2.695853 1.592395
v 8.780077 -2.695853 1.592395
vt 0.375000 0.953540
vt 0.625000 0.953540
vt 0.625000 1.000000
vt 0.375000 1.000000
vt 0.875000 0.500000
vt 0.875000 0.659363
vt 0.875000 0.659363
vt 0.875000 0.500000
vt 0.625000 0.090637
vt 0.625000 0.090637
vt 0.625000 0.090637
vt 0.625000 0.090637
vt 0.375000 0.077460
vt 0.625000 0.077460
vt 0.625000 0.090637
vt 0.375000 0.090637
vt 0.375000 0.090637
vt 0.375000 0.090637
vt 0.625000 0.250000
vt 0.375000 0.250000
vt 0.625000 0.250000
vt 0.375000 0.250000
vt 0.125000 0.500000
vt 0.125000 0.659363
vt 0.125000 0.659363
vt 0.125000 0.500000
vt 0.625000 0.250000
vt 0.625000 0.250000
vt 0.125000 0.500000
vt 0.171460 0.500000
vt 0.171460 0.659363
vt 0.125000 0.659363
vt 0.625000 0.250000
vt 0.125000 0.672540
vt 0.171460 0.672540
vt 0.171460 0.750000
vt 0.125000 0.750000
vt 0.798947 0.702133
vt 0.375000 0.250000
vt 0.625000 0.296460
vt 0.375000 0.296460
vt 0.625000 0.000000
vt 0.625000 0.000000
vt 0.625000 0.000000
vt 0.625000 0.000000
vt 0.828540 0.500000
vt 0.828540 0.659363
vt 0.875000 0.659363
vt 0.875000 0.500000
vt 0.875000 0.500000
vt 0.875000 0.659363
vt 0.828540 0.659363
vt 0.828540 0.500000
vt 0.625000 0.000000
vt 0.625000 0.077460
vt 0.875000 0.659363
vt 0.875000 0.500000
vt 0.625000 0.250000
vt 0.625000 0.296460
vt 0.828540 0.672540
vt 0.828540 0.672540
vt 0.625000 0.953540
vt 0.625000 1.000000
vt 0.828540 0.750000
vt 0.828540 0.750000
vt 0.625000 0.090637
vt 0.875000 0.672540
vt 0.375000 0.000000
vt 0.828540 0.672540
vt 0.875000 0.672540
vt 0.875000 0.750000
vt 0.828540 0.750000
vt 0.625000 0.077460
vt 0.375000 0.953540
vt 0.625000 0.953540
vt 0.625000 1.000000
vt 0.375000 1.000000
vt 0.875000 0.500000
vt 0.875000 0.659363
vt 0.875000 0.659363
vt 0.875000 0.500000
vt 0.625000 0.090637
vt 0.625000 0.090637
vt 0.625000 0.090637
vt 0.625000 0.090637
vt 0.375000 0.076842
vt 0.625000 0.076842
vt 0.625000 0.090637
vt 0.375000 0.090637
vt 0.375000 0.090637
vt 0.375000 0.090637
vt 0.625000 0.250000
vt 0.375000 0.250000
vt 0.625000 0.250000
vt 0.375000 0.250000
vt 0.125000 0.500000
vt 0.125000 0.659363
vt 0.125000 0.659363
vt 0.125000 0.500000
vt 0.625000 0.250000
vt 0.625000 0.250000
vt 0.125000 0.500000
vt 0.171460 0.500000
vt 0.171460 0.659363
vt 0.125000 0.659363
vt 0.625000 0.250000
vt 0.125000 0.673158
vt 0.171460 0.673158
vt 0.171460 0.750000
vt 0.125000 0.750000
vt 0.797560 0.704137
vt 0.375000 0.250000
vt 0.625000 0.296460
vt 0.375000 0.296460
vt 0.828540 0.500000
vt 0.828540 0.659363
vt 0.875000 0.659363
vt 0.875000 0.500000
vt 0.875000 0.500000
vt 0.875000 0.659363
vt 0.828540 0.659363
vt 0.828540 0.500000
vt 0.828540 0.673158
vt 0.875000 0.673158
vt 0.875000 0.750000
vt 0.828540 0.750000
vt 0.875000 0.659363
vt 0.875000 0.500000
vt 0.625000 0.250000
vt 0.625000 0.296460
vt 0.828540 0.673158
vt 0.625000 0.953540
vt 0.625000 1.000000
vt 0.625000 0.000000
vt 0.625000 0.000000
vt 0.625000 0.076842
vt 0.625000 0.090637
vt 0.375000 0.000000
vt 0.000000 0.000000
vt 0.000000 0.000000
vt 0.000000 0.000000
vt 0.000000 0.000000
vt 0.000000 0.000000
vt 0.000000 0.000000
vt 0.000000 0.000000
vt 0.000000 0.000000
vt 0.828540 0.750000
vt 0.625000 1.000000
vt 0.625000 0.953540
vt 0.625000 0.953540
vt 0.625000 1.000000
vt 0.625000 0.953540
vt 0.625000 0.953540
vt 0.875000 0.750000
vt 0.828540 0.750000
vt 0.828540 0.750000
vt 0.828540 0.750000
vt 0.828540 0.750000
vt 0.828540 0.750000
vt 0.828540 0.750000
vt 0.625000 0.953540
vt 0.828540 0.750000
vt 0.828540 0.750000
vt 0.625000 0.953540
vt 0.625000 0.953540
vt 0.625000 0.953540
vn 0.0000 0.0000 1.0000
vn 0.0000 1.0000 0.0000
vn 0.0000 0.0000 -1.0000
vn -1.0000 0.0000 0.0000
vn 0.0000 -1.0000 0.0000
vn 1.0000 0.0000 0.0000
vn 0.0148 0.0000 -0.9999
vn 0.0000 -0.2227 0.9749
vn 0.0000 0.1368 -0.9906
vn 0.0000 -0.1640 0.9865
vn 0.0000 0.3749 -0.9271
vn 0.0000 -0.2897 0.9571
usemtl None
s off
f 17/1/1 18/2/1 2/3/1 1/4/1
f 4/5/2 6/6/2 21/7/2 22/8/2
f 11/9/1 7/10/1 25/11/1 27/12/1
f 31/13/2 32/14/2 6/15/2 5/16/2
f 10/17/1 7/10/1 11/9/1 14/18/1
f 14/18/2 11/9/2 12/19/2 13/20/2
f 8/21/3 9/22/3 13/20/3 12/19/3
f 9/23/4 10/24/4 14/25/4 13/26/4
f 8/21/3 12/19/3 28/27/3 26/28/3
f 3/29/4 15/30/4 20/31/4 5/32/4
f 7/10/5 10/17/5 9/23/5 8/21/5
f 6/15/2 4/33/2 3/29/2 5/16/2
f 31/34/4 34/35/4 17/36/4 1/37/4
f 34/35/5 33/38/5 18/2/5 17/36/5
f 3/39/3 4/33/3 16/40/3 15/41/3
f 38/42/2 24/43/2 78/44/2 80/45/2
f 29/46/6 22/8/6 21/7/6 30/47/6
f 25/48/6 26/49/6 28/50/6 27/51/6
f 19/52/5 16/53/5 29/46/5 30/47/5
f 32/14/2 2/54/2 24/43/2 35/55/2
f 7/56/5 8/57/5 26/49/5 25/48/5
f 16/40/3 4/33/3 22/58/3 29/59/3
f 33/60/5 19/52/5 30/47/5 36/61/5
f 2/3/1 18/2/1 23/62/1 24/63/1
f 12/19/2 11/9/2 27/12/2 28/27/2
f 18/64/5 33/60/5 36/61/5 23/65/5
f 6/15/2 32/14/2 35/55/2 21/66/2
f 30/47/6 21/7/6 35/67/6 36/61/6
f 20/31/5 15/41/5 16/53/5 19/52/5 33/38/5 34/35/5
f 5/32/4 20/31/4 34/35/4 31/34/4
f 1/68/2 2/54/2 32/14/2 31/13/2
f 39/69/6 40/70/6 38/71/6 37/72/6
f 23/65/5 36/61/5 39/69/5 37/72/5
f 36/61/3 35/67/3 40/70/3 39/69/3
f 35/55/2 24/43/2 38/42/2 40/73/2
f 57/74/1 58/75/1 42/76/1 41/77/1
f 44/78/2 46/79/2 61/80/2 62/81/2
f 51/82/1 47/83/1 65/84/1 67/85/1
f 71/86/2 72/87/2 46/88/2 45/89/2
f 50/90/1 47/83/1 51/82/1 54/91/1
f 54/91/2 51/82/2 52/92/2 53/93/2
f 48/94/3 49/95/3 53/93/3 52/92/3
f 49/96/4 50/97/4 54/98/4 53/99/4
f 48/94/3 52/92/3 68/100/3 66/101/3
f 43/102/4 55/103/4 60/104/4 45/105/4
f 47/83/5 50/90/5 49/96/5 48/94/5
f 46/88/2 44/106/2 43/102/2 45/89/2
f 71/107/4 74/108/4 57/109/4 41/110/4
f 74/108/5 73/111/5 58/75/5 57/109/5
f 43/112/3 44/106/3 56/113/3 55/114/3
f 69/115/6 62/81/6 61/80/6 70/116/6
f 65/117/6 66/118/6 68/119/6 67/120/6
f 59/121/5 56/122/5 69/115/5 70/116/5
f 76/123/6 75/124/6 64/125/6 63/126/6
f 47/127/5 48/128/5 66/118/5 65/117/5
f 56/113/3 44/106/3 62/129/3 69/130/3
f 73/131/5 59/121/5 70/116/5 76/123/5
f 42/76/1 58/75/1 63/132/1 64/133/1
f 52/92/2 51/82/2 67/85/2 68/100/2
f 72/87/2 42/134/2 64/135/2 75/136/2
f 46/88/2 72/87/2 75/136/2 61/137/2
f 70/116/6 61/80/6 75/124/6 76/123/6
f 60/104/5 55/114/5 56/122/5 59/121/5 73/111/5 74/108/5
f 45/105/4 60/104/4 74/108/4 71/107/4
f 41/138/2 42/134/2 72/87/2 71/86/2
f 40/70/7 71/107/7 74/108/7 39/69/7
f 38/139/2 41/140/2 71/141/2 40/142/2
f 57/143/3 37/144/3 38/139/3 41/140/3
f 39/145/5 74/146/5 57/143/5 37/144/5
f 58/147/5 73/131/5 76/123/5 63/126/5
f 78/148/8 77/149/8 79/150/8 80/151/8
f 77/149/4 23/62/4 81/152/4 83/153/4
f 24/63/4 23/62/4 77/149/4 78/148/4
f 37/72/6 38/71/6 80/154/6 79/155/6
f 82/156/6 84/157/6 88/158/6 86/159/6
f 37/72/6 79/155/6 84/157/6 82/156/6
f 23/65/9 37/72/9 82/156/9 81/160/9
f 79/150/10 77/149/10 83/153/10 84/161/10
f 85/162/5 86/159/5 88/158/5 87/163/5
f 81/160/11 82/156/11 86/159/11 85/162/11
f 83/153/4 81/152/4 85/164/4 87/165/4
f 84/161/12 83/153/12 87/165/12 88/166/12
l 19 20
l 59 60
