# Blender v2.80 (sub 75) OBJ File: 'sub.blend'
# www.blender.org
mtllib left console base.mtl
o Left_Base_Cube
v -0.420892 -1.176270 0.780157
v -0.381723 -1.053276 0.739925
v -0.420892 -1.176270 0.444129
v -0.381723 -1.053276 0.461964
v 0.306454 -1.176270 0.780157
v 0.267366 -1.053276 0.739925
v 0.306454 -1.176270 0.444129
v 0.267366 -1.053276 0.463593
v 0.114616 -1.176270 0.294896
v 0.101557 -1.053276 0.334608
v 0.114616 -1.176270 0.780157
v 0.115853 -1.053276 0.739925
v -0.252511 -1.176270 0.294896
v -0.253830 -1.053276 0.739925
v -0.238025 -1.053276 0.334608
v -0.252511 -1.176270 0.780157
v -0.420892 -1.091386 0.780157
v -0.420892 -1.091386 0.444129
v 0.306454 -1.091386 0.444129
v 0.306454 -1.091386 0.780157
v 0.114616 -1.091386 0.780157
v 0.114616 -1.091386 0.294896
v -0.252511 -1.091386 0.294896
v -0.252511 -1.091386 0.780157
v -0.396339 -1.057410 0.766067
v -0.396339 -1.057410 0.453098
v 0.102422 -1.057410 0.314106
v 0.281096 -1.057410 0.453098
v 0.281096 -1.057410 0.766067
v -0.239512 -1.057410 0.766067
v -0.239512 -1.057410 0.314106
v 0.102422 -1.057410 0.766067
v 0.101557 -1.090392 0.334608
v 0.115853 -1.090392 0.739925
v -0.238025 -1.090392 0.334608
v -0.253830 -1.090392 0.739925
v -0.381723 -1.090392 0.739925
v -0.381723 -1.090392 0.461964
v 0.267366 -1.090392 0.463593
v 0.267366 -1.090392 0.739925
vt 0.553538 0.000000
vt 0.625000 0.000000
vt 0.625000 0.250000
vt 0.553538 0.250000
vt 0.553538 0.434062
vt 0.625000 0.434062
vt 0.625000 0.500000
vt 0.553538 0.500000
vt 0.625000 0.750000
vt 0.553538 0.750000
vt 0.553538 0.942125
vt 0.625000 0.942125
vt 0.625000 1.000000
vt 0.553538 1.000000
vt 0.309062 0.500000
vt 0.375000 0.500000
vt 0.375000 0.750000
vt 0.309062 0.750000
vt 0.690938 0.728685
vt 0.639221 0.722299
vt 0.639221 0.722299
vt 0.690938 0.728685
vt 0.811730 0.527542
vt 0.860779 0.533152
vt 0.860779 0.533152
vt 0.811730 0.527542
vt 0.182875 0.500000
vt 0.182875 0.750000
vt 0.625000 0.815938
vt 0.553538 0.815938
vt 0.553538 0.307875
vt 0.625000 0.307875
vt 0.125000 0.500000
vt 0.125000 0.750000
vt 0.860779 0.722474
vt 0.860779 0.722474
vt 0.375000 0.815938
vt 0.375000 0.942125
vt 0.375000 0.250000
vt 0.375000 0.307875
vt 0.375000 0.434062
vt 0.375000 1.000000
vt 0.375000 0.000000
vt 0.875000 0.500000
vt 0.875000 0.750000
vt 0.695818 0.521315
vt 0.639221 0.531990
vt 0.690938 0.500000
vt 0.817125 0.728685
vt 0.817125 0.750000
vt 0.817125 0.500000
vt 0.690938 0.750000
vt 0.817125 0.728685
vt 0.639221 0.531990
vt 0.695818 0.521315
vn -0.8105 0.5857 0.0000
vn 0.5109 0.5547 -0.6568
vn 0.8014 0.5981 0.0000
vn 0.0000 0.3831 0.9237
vn 0.0000 -1.0000 0.0000
vn 0.0000 0.0000 -1.0000
vn 0.6633 0.0000 0.7484
vn 0.0000 0.4922 -0.8705
vn -0.5493 0.5605 -0.6198
vn 1.0000 0.0000 0.0000
vn 0.0000 0.0000 1.0000
vn -0.6633 0.0000 -0.7484
vn 0.6140 0.0000 -0.7893
vn -1.0000 0.0000 0.0000
vn -0.2722 0.9622 0.0000
vn 0.1474 0.9707 -0.1895
vn 0.2883 0.9575 -0.0000
vn 0.0000 0.9877 0.1562
vn 0.0000 0.9803 -0.1977
vn -0.1628 0.9694 -0.1837
vn 0.0000 1.0000 0.0000
vn -0.6140 0.0000 0.7893
usemtl None
s off
f 17/1/1 25/2/1 26/3/1 18/4/1
f 22/5/2 27/6/2 28/7/2 19/8/2
f 19/8/3 28/7/3 29/9/3 20/10/3
f 24/11/4 30/12/4 25/13/4 17/14/4
f 9/15/5 7/16/5 5/17/5 11/18/5
f 12/19/6 6/20/6 40/21/6 34/22/6
f 15/23/7 4/24/7 38/25/7 35/26/7
f 13/27/5 9/15/5 11/18/5 16/28/5
f 20/10/4 29/9/4 32/29/4 21/30/4
f 23/31/8 31/32/8 27/6/8 22/5/8
f 18/4/9 26/3/9 31/32/9 23/31/9
f 3/33/5 13/27/5 16/28/5 1/34/5
f 4/24/10 2/35/10 37/36/10 38/25/10
f 21/30/4 32/29/4 30/12/4 24/11/4
f 11/37/11 21/30/11 24/11/11 16/38/11
f 3/39/12 18/4/12 23/31/12 13/40/12
f 13/40/6 23/31/6 22/5/6 9/41/6
f 5/17/11 20/10/11 21/30/11 11/37/11
f 16/38/11 24/11/11 17/14/11 1/42/11
f 7/16/10 19/8/10 20/10/10 5/17/10
f 9/41/13 22/5/13 19/8/13 7/16/13
f 1/43/14 17/1/14 18/4/14 3/39/14
f 2/35/15 4/24/15 26/44/15 25/45/15
f 10/46/16 8/47/16 28/7/16 27/48/16
f 8/47/17 6/20/17 29/9/17 28/7/17
f 14/49/18 2/35/18 25/45/18 30/50/18
f 15/23/19 10/46/19 27/48/19 31/51/19
f 6/20/18 12/19/18 32/52/18 29/9/18
f 12/19/18 14/49/18 30/50/18 32/52/18
f 4/24/20 15/23/20 31/51/20 26/44/20
f 35/26/21 38/25/21 37/36/21 36/53/21
f 39/54/21 33/55/21 34/22/21 40/21/21
f 33/55/21 35/26/21 36/53/21 34/22/21
f 2/35/6 14/49/6 36/53/6 37/36/6
f 8/47/22 10/46/22 33/55/22 39/54/22
f 14/49/6 12/19/6 34/22/6 36/53/6
f 10/46/11 15/23/11 35/26/11 33/55/11
f 6/20/14 8/47/14 39/54/14 40/21/14
o Sonar_Top_Cube.002
v -0.051391 -0.885631 0.881739
v -0.051391 -0.517638 0.881739
v -0.027428 -0.870495 0.832407
v -0.027428 -0.533034 0.832407
v 0.414556 -0.885631 0.881739
v 0.414556 -0.517638 0.881739
v 0.390431 -0.870198 0.832407
v 0.390431 -0.533334 0.832407
v 0.346963 -0.911995 0.832407
v 0.347130 -0.494136 0.832407
v 0.362085 -0.936085 0.881739
v 0.362085 -0.470138 0.881739
v -0.004169 -0.936085 0.881739
v 0.011242 -0.494136 0.832407
v -0.004169 -0.470138 0.881739
v 0.011414 -0.911995 0.832407
v -0.051391 -0.885631 0.846996
v -0.051391 -0.517638 0.846996
v 0.414556 -0.885631 0.846996
v 0.414556 -0.517638 0.846996
v 0.362085 -0.470138 0.846996
v 0.362085 -0.936085 0.846996
v -0.004169 -0.470138 0.846996
v -0.004169 -0.936085 0.846996
v -0.037074 -0.529055 0.832407
v -0.037074 -0.874304 0.832407
v 0.007230 -0.921641 0.832407
v 0.400076 -0.529055 0.832407
v 0.400076 -0.874304 0.832407
v 0.007230 -0.484491 0.832407
v 0.350848 -0.484491 0.832407
v 0.350848 -0.921641 0.832407
v 0.347130 -0.494136 0.860049
v 0.346963 -0.911995 0.860049
v 0.011242 -0.494136 0.860049
v 0.011414 -0.911995 0.860049
v -0.027428 -0.533034 0.860049
v -0.027428 -0.870495 0.860049
v 0.390431 -0.533334 0.860049
v 0.390431 -0.870198 0.860049
vt 0.375000 0.176067
vt 0.625000 0.176067
vt 0.625000 0.250000
vt 0.375000 0.250000
vt 0.616488 0.255516
vt 0.619484 0.277631
vt 0.619484 0.277631
vt 0.616488 0.255516
vt 0.375000 0.573933
vt 0.625000 0.573933
vt 0.625000 0.750000
vt 0.375000 0.750000
vt 0.375000 0.974663
vt 0.625000 0.974663
vt 0.625000 1.000000
vt 0.375000 1.000000
vt 0.382458 0.469625
vt 0.380516 0.277729
vt 0.380516 0.277729
vt 0.382458 0.469625
vt 0.849663 0.573933
vt 0.875000 0.573933
vt 0.875000 0.750000
vt 0.849663 0.750000
vt 0.346847 0.573933
vt 0.346847 0.750000
vt 0.150337 0.573933
vt 0.150337 0.750000
vt 0.653153 0.573933
vt 0.653153 0.750000
vt 0.383361 0.494484
vt 0.383361 0.494484
vt 0.375000 0.778153
vt 0.625000 0.778153
vt 0.125000 0.573933
vt 0.125000 0.750000
vt 0.125000 0.500000
vt 0.150337 0.500000
vt 0.653153 0.500000
vt 0.849663 0.500000
vt 0.625000 0.500000
vt 0.346847 0.500000
vt 0.375000 0.500000
vt 0.875000 0.500000
vt 0.375000 0.000000
vt 0.625000 0.000000
vt 0.383754 0.255516
vt 0.375000 0.275337
vt 0.616844 0.494484
vt 0.625000 0.275337
vt 0.617750 0.469721
vt 0.625000 0.471847
vt 0.375000 0.471847
vt 0.383754 0.255516
vt 0.617750 0.469721
vt 0.616844 0.494484
vn -0.7137 0.0000 -0.7004
vn 0.7092 -0.7050 0.0000
vn 1.0000 0.0000 0.0000
vn 0.0000 0.0000 1.0000
vn 0.0000 1.0000 0.0000
vn -0.7092 0.7050 0.0000
vn 0.6931 -0.7208 0.0000
vn 0.0000 -1.0000 0.0000
vn 0.6711 0.7414 0.0000
vn -0.6931 0.7208 0.0000
vn -0.7301 -0.6833 0.0000
vn -0.4568 -0.4275 -0.7801
vn 0.0000 0.7128 -0.7013
vn 0.4200 0.4640 -0.7800
vn 0.0000 -0.7106 -0.7036
vn 0.4335 -0.4508 -0.7803
vn -0.4435 0.4409 -0.7803
vn 0.7098 0.0000 -0.7044
vn -1.0000 0.0000 0.0000
vn 0.0000 0.0000 -1.0000
vn 0.7301 0.6833 0.0000
vn -0.6711 -0.7414 0.0000
usemtl None
s off
f 57/56/23 58/57/23 65/58/23 66/59/23
f 44/60/24 54/61/24 75/62/24 77/63/24
f 59/64/25 60/65/25 46/66/25 45/67/25
f 53/68/26 55/69/26 42/70/26 41/71/26
f 49/72/27 56/73/27 76/74/27 74/75/27
f 63/76/28 58/77/28 42/78/28 55/79/28
f 62/80/29 59/64/29 45/67/29 51/81/29
f 64/82/30 62/80/30 51/81/30 53/83/30
f 60/65/31 61/84/31 52/85/31 46/66/31
f 47/86/32 49/72/32 74/75/32 80/87/32
f 51/88/26 52/89/26 55/69/26 53/68/26
f 61/84/27 63/76/27 55/79/27 52/85/27
f 57/90/33 64/82/33 53/83/33 41/91/33
f 45/67/26 46/66/26 52/89/26 51/88/26
f 66/92/34 67/93/34 64/82/34 57/90/34
f 71/94/35 70/95/35 63/76/35 61/84/35
f 68/96/36 71/94/36 61/84/36 60/65/36
f 67/93/37 72/97/37 62/80/37 64/82/37
f 72/97/38 69/98/38 59/64/38 62/80/38
f 70/95/39 65/99/39 58/77/39 63/76/39
f 69/98/40 68/96/40 60/65/40 59/64/40
f 41/100/41 42/101/41 58/57/41 57/56/41
f 44/60/42 43/102/42 66/59/42 65/58/42
f 43/102/42 56/73/42 67/103/42 66/59/42
f 47/86/42 48/104/42 68/96/42 69/98/42
f 54/61/42 44/60/42 65/58/42 70/105/42
f 50/106/42 54/61/42 70/105/42 71/107/42
f 56/73/42 49/72/42 72/108/42 67/103/42
f 48/104/42 50/106/42 71/107/42 68/96/42
f 49/72/42 47/86/42 69/98/42 72/108/42
f 78/109/42 77/63/42 75/62/42 76/74/42
f 74/75/42 73/110/42 79/111/42 80/87/42
f 76/74/42 75/62/42 73/110/42 74/75/42
f 56/73/43 43/102/43 78/109/43 76/74/43
f 50/106/44 48/104/44 79/111/44 73/110/44
f 54/61/30 50/106/30 73/110/30 75/62/30
f 48/104/41 47/86/41 80/87/41 79/111/41
f 43/102/25 44/60/25 77/63/25 78/109/25
o Energy_Top_Cube.006
v -0.590940 -0.885631 0.881739
v -0.590940 -0.760259 0.881739
v -0.566976 -0.870495 0.832407
v -0.566976 -0.775655 0.832407
v -0.124992 -0.885631 0.881739
v -0.124992 -0.760259 0.881739
v -0.149117 -0.870198 0.832407
v -0.149117 -0.775955 0.832407
v -0.192586 -0.911995 0.832407
v -0.192418 -0.736757 0.832407
v -0.177464 -0.936085 0.881739
v -0.177464 -0.712759 0.881739
v -0.543717 -0.936085 0.881739
v -0.528306 -0.736757 0.832407
v -0.543717 -0.712759 0.881739
v -0.528135 -0.911995 0.832407
v -0.590940 -0.885631 0.846996
v -0.590940 -0.760259 0.846996
v -0.124992 -0.885631 0.846996
v -0.124992 -0.760259 0.846996
v -0.177464 -0.712759 0.846996
v -0.177464 -0.936085 0.846996
v -0.543717 -0.712759 0.846996
v -0.543717 -0.936085 0.846996
v -0.576622 -0.771676 0.832407
v -0.576622 -0.874304 0.832407
v -0.532318 -0.921641 0.832407
v -0.139472 -0.771676 0.832407
v -0.139472 -0.874304 0.832407
v -0.532318 -0.727112 0.832407
v -0.188701 -0.727112 0.832407
v -0.188701 -0.921641 0.832407
v -0.192418 -0.736757 0.860049
v -0.192586 -0.911995 0.860049
v -0.528306 -0.736757 0.860049
v -0.528135 -0.911995 0.860049
v -0.566976 -0.775655 0.860049
v -0.566976 -0.870495 0.860049
v -0.149117 -0.775955 0.860049
v -0.149117 -0.870198 0.860049
vt 0.375000 0.176067
vt 0.625000 0.176067
vt 0.625000 0.250000
vt 0.375000 0.250000
vt 0.616488 0.255516
vt 0.619484 0.277631
vt 0.619484 0.277631
vt 0.616488 0.255516
vt 0.375000 0.573933
vt 0.625000 0.573933
vt 0.625000 0.750000
vt 0.375000 0.750000
vt 0.375000 0.974663
vt 0.625000 0.974663
vt 0.625000 1.000000
vt 0.375000 1.000000
vt 0.382458 0.469625
vt 0.380516 0.277729
vt 0.380516 0.277729
vt 0.382458 0.469625
vt 0.849663 0.573933
vt 0.875000 0.573933
vt 0.875000 0.750000
vt 0.849663 0.750000
vt 0.346847 0.573933
vt 0.346847 0.750000
vt 0.150337 0.573933
vt 0.150337 0.750000
vt 0.653153 0.573933
vt 0.653153 0.750000
vt 0.383361 0.494484
vt 0.383361 0.494484
vt 0.375000 0.778153
vt 0.625000 0.778153
vt 0.125000 0.573933
vt 0.125000 0.750000
vt 0.125000 0.500000
vt 0.150337 0.500000
vt 0.653153 0.500000
vt 0.849663 0.500000
vt 0.625000 0.500000
vt 0.346847 0.500000
vt 0.375000 0.500000
vt 0.875000 0.500000
vt 0.375000 0.000000
vt 0.625000 0.000000
vt 0.383754 0.255516
vt 0.375000 0.275337
vt 0.616844 0.494484
vt 0.625000 0.275337
vt 0.617750 0.469721
vt 0.625000 0.471847
vt 0.375000 0.471847
vt 0.383754 0.255516
vt 0.617750 0.469721
vt 0.616844 0.494484
vn -0.7137 0.0000 -0.7004
vn 0.7092 -0.7050 0.0000
vn 1.0000 0.0000 0.0000
vn -0.0000 0.0000 1.0000
vn 0.0000 1.0000 0.0000
vn -0.7092 0.7050 0.0000
vn 0.6931 -0.7208 0.0000
vn 0.0000 -1.0000 0.0000
vn 0.6711 0.7414 0.0000
vn -0.6931 0.7208 0.0000
vn -0.7301 -0.6833 0.0000
vn -0.4568 -0.4275 -0.7801
vn 0.0000 0.7128 -0.7013
vn 0.4200 0.4640 -0.7800
vn 0.0000 -0.7106 -0.7036
vn 0.4335 -0.4508 -0.7803
vn -0.4435 0.4409 -0.7803
vn 0.7098 0.0000 -0.7044
vn -1.0000 0.0000 0.0000
vn 0.0000 0.0000 -1.0000
vn 0.7301 0.6833 0.0000
vn -0.6711 -0.7414 0.0000
usemtl None
s off
f 97/112/45 98/113/45 105/114/45 106/115/45
f 84/116/46 94/117/46 115/118/46 117/119/46
f 99/120/47 100/121/47 86/122/47 85/123/47
f 93/124/48 95/125/48 82/126/48 81/127/48
f 89/128/49 96/129/49 116/130/49 114/131/49
f 103/132/50 98/133/50 82/134/50 95/135/50
f 102/136/51 99/120/51 85/123/51 91/137/51
f 104/138/52 102/136/52 91/137/52 93/139/52
f 100/121/53 101/140/53 92/141/53 86/122/53
f 87/142/54 89/128/54 114/131/54 120/143/54
f 91/144/48 92/145/48 95/125/48 93/124/48
f 101/140/49 103/132/49 95/135/49 92/141/49
f 97/146/55 104/138/55 93/139/55 81/147/55
f 85/123/48 86/122/48 92/145/48 91/144/48
f 106/148/56 107/149/56 104/138/56 97/146/56
f 111/150/57 110/151/57 103/132/57 101/140/57
f 108/152/58 111/150/58 101/140/58 100/121/58
f 107/149/59 112/153/59 102/136/59 104/138/59
f 112/153/60 109/154/60 99/120/60 102/136/60
f 110/151/61 105/155/61 98/133/61 103/132/61
f 109/154/62 108/152/62 100/121/62 99/120/62
f 81/156/63 82/157/63 98/113/63 97/112/63
f 84/116/64 83/158/64 106/115/64 105/114/64
f 83/158/64 96/129/64 107/159/64 106/115/64
f 87/142/64 88/160/64 108/152/64 109/154/64
f 94/117/64 84/116/64 105/114/64 110/161/64
f 90/162/64 94/117/64 110/161/64 111/163/64
f 96/129/64 89/128/64 112/164/64 107/159/64
f 88/160/64 90/162/64 111/163/64 108/152/64
f 89/128/64 87/142/64 109/154/64 112/164/64
f 118/165/64 117/119/64 115/118/64 116/130/64
f 114/131/64 113/166/64 119/167/64 120/143/64
f 116/130/64 115/118/64 113/166/64 114/131/64
f 96/129/65 83/158/65 118/165/65 116/130/65
f 90/162/66 88/160/66 119/167/66 113/166/66
f 94/117/52 90/162/52 113/166/52 115/118/52
f 88/160/63 87/142/63 120/143/63 119/167/63
f 83/158/47 84/116/47 117/119/47 118/165/47
