# Blender v2.80 (sub 75) OBJ File: 'sub.blend'
# www.blender.org
mtllib left console energy screen.mtl
o Energy_Screen_Plane.002
v -0.580108 -0.783945 0.842013
v -0.134766 -0.783945 0.842013
v -0.580108 -0.870707 0.842013
v -0.134766 -0.870707 0.842013
v -0.190848 -0.728572 0.842013
v -0.190848 -0.921897 0.842013
v -0.528934 -0.921897 0.842013
v -0.528934 -0.728572 0.842013
vt 0.874071 0.000000
vt 1.000000 0.000000
vt 1.000000 1.000000
vt 0.874071 1.000000
vt 0.114910 0.000000
vt 0.114910 1.000000
vt 0.000000 0.000000
vt 0.000000 1.000000
vn -0.0000 0.0000 -1.0000
usemtl None
s off
f 5/1/1 2/2/1 4/3/1 6/4/1
f 8/5/1 5/1/1 6/4/1 7/6/1
f 1/7/1 8/5/1 7/6/1 3/8/1
