# Blender v2.80 (sub 75) OBJ File: 'sub.blend'
# www.blender.org
mtllib frame.mtl
o Sonar_Top_Cube.002
v -0.051391 -0.885631 0.881739
v -0.051391 -0.517638 0.881739
v -0.027428 -0.870495 0.832407
v -0.027428 -0.533034 0.832407
v 0.414556 -0.885631 0.881739
v 0.414556 -0.517638 0.881739
v 0.390431 -0.870198 0.832407
v 0.390431 -0.533334 0.832407
v 0.346963 -0.911995 0.832407
v 0.347130 -0.494136 0.832407
v 0.362085 -0.936085 0.881739
v 0.362085 -0.470138 0.881739
v -0.004169 -0.936085 0.881739
v 0.011242 -0.494136 0.832407
v -0.004169 -0.470138 0.881739
v 0.011414 -0.911995 0.832407
v -0.051391 -0.885631 0.846996
v -0.051391 -0.517638 0.846996
v 0.414556 -0.885631 0.846996
v 0.414556 -0.517638 0.846996
v 0.362085 -0.470138 0.846996
v 0.362085 -0.936085 0.846996
v -0.004169 -0.470138 0.846996
v -0.004169 -0.936085 0.846996
v -0.037074 -0.529055 0.832407
v -0.037074 -0.874304 0.832407
v 0.007230 -0.921641 0.832407
v 0.400076 -0.529055 0.832407
v 0.400076 -0.874304 0.832407
v 0.007230 -0.484491 0.832407
v 0.350848 -0.484491 0.832407
v 0.350848 -0.921641 0.832407
v 0.347130 -0.494136 0.860049
v 0.346963 -0.911995 0.860049
v 0.011242 -0.494136 0.860049
v 0.011414 -0.911995 0.860049
v -0.027428 -0.533034 0.860049
v -0.027428 -0.870495 0.860049
v 0.390431 -0.533334 0.860049
v 0.390431 -0.870198 0.860049
vt 0.375000 0.176067
vt 0.625000 0.176067
vt 0.625000 0.250000
vt 0.375000 0.250000
vt 0.616488 0.255516
vt 0.619484 0.277631
vt 0.619484 0.277631
vt 0.616488 0.255516
vt 0.375000 0.573933
vt 0.625000 0.573933
vt 0.625000 0.750000
vt 0.375000 0.750000
vt 0.375000 0.974663
vt 0.625000 0.974663
vt 0.625000 1.000000
vt 0.375000 1.000000
vt 0.382458 0.469625
vt 0.380516 0.277729
vt 0.380516 0.277729
vt 0.382458 0.469625
vt 0.849663 0.573933
vt 0.875000 0.573933
vt 0.875000 0.750000
vt 0.849663 0.750000
vt 0.346847 0.573933
vt 0.346847 0.750000
vt 0.150337 0.573933
vt 0.150337 0.750000
vt 0.653153 0.573933
vt 0.653153 0.750000
vt 0.383361 0.494484
vt 0.383361 0.494484
vt 0.375000 0.778153
vt 0.625000 0.778153
vt 0.125000 0.573933
vt 0.125000 0.750000
vt 0.125000 0.500000
vt 0.150337 0.500000
vt 0.653153 0.500000
vt 0.849663 0.500000
vt 0.625000 0.500000
vt 0.346847 0.500000
vt 0.375000 0.500000
vt 0.875000 0.500000
vt 0.375000 0.000000
vt 0.625000 0.000000
vt 0.383754 0.255516
vt 0.375000 0.275337
vt 0.616844 0.494484
vt 0.625000 0.275337
vt 0.617750 0.469721
vt 0.625000 0.471847
vt 0.375000 0.471847
vt 0.383754 0.255516
vt 0.617750 0.469721
vt 0.616844 0.494484
vn -0.7137 0.0000 -0.7004
vn 0.7092 -0.7050 0.0000
vn 1.0000 0.0000 0.0000
vn 0.0000 0.0000 1.0000
vn 0.0000 1.0000 0.0000
vn -0.7092 0.7050 0.0000
vn 0.6931 -0.7208 0.0000
vn 0.0000 -1.0000 0.0000
vn 0.6711 0.7414 0.0000
vn -0.6931 0.7208 0.0000
vn -0.7301 -0.6833 0.0000
vn -0.4568 -0.4275 -0.7801
vn 0.0000 0.7128 -0.7013
vn 0.4200 0.4640 -0.7800
vn 0.0000 -0.7106 -0.7036
vn 0.4335 -0.4508 -0.7803
vn -0.4435 0.4409 -0.7803
vn 0.7098 0.0000 -0.7044
vn -1.0000 0.0000 0.0000
vn 0.0000 0.0000 -1.0000
vn 0.7301 0.6833 0.0000
vn -0.6711 -0.7414 0.0000
usemtl None
s off
f 17/1/1 18/2/1 25/3/1 26/4/1
f 4/5/2 14/6/2 35/7/2 37/8/2
f 19/9/3 20/10/3 6/11/3 5/12/3
f 13/13/4 15/14/4 2/15/4 1/16/4
f 9/17/5 16/18/5 36/19/5 34/20/5
f 23/21/6 18/22/6 2/23/6 15/24/6
f 22/25/7 19/9/7 5/12/7 11/26/7
f 24/27/8 22/25/8 11/26/8 13/28/8
f 20/10/9 21/29/9 12/30/9 6/11/9
f 7/31/10 9/17/10 34/20/10 40/32/10
f 11/33/4 12/34/4 15/14/4 13/13/4
f 21/29/5 23/21/5 15/24/5 12/30/5
f 17/35/11 24/27/11 13/28/11 1/36/11
f 5/12/4 6/11/4 12/34/4 11/33/4
f 26/37/12 27/38/12 24/27/12 17/35/12
f 31/39/13 30/40/13 23/21/13 21/29/13
f 28/41/14 31/39/14 21/29/14 20/10/14
f 27/38/15 32/42/15 22/25/15 24/27/15
f 32/42/16 29/43/16 19/9/16 22/25/16
f 30/40/17 25/44/17 18/22/17 23/21/17
f 29/43/18 28/41/18 20/10/18 19/9/18
f 1/45/19 2/46/19 18/2/19 17/1/19
f 4/5/20 3/47/20 26/4/20 25/3/20
f 3/47/20 16/18/20 27/48/20 26/4/20
f 7/31/20 8/49/20 28/41/20 29/43/20
f 14/6/20 4/5/20 25/3/20 30/50/20
f 10/51/20 14/6/20 30/50/20 31/52/20
f 16/18/20 9/17/20 32/53/20 27/48/20
f 8/49/20 10/51/20 31/52/20 28/41/20
f 9/17/20 7/31/20 29/43/20 32/53/20
f 38/54/20 37/8/20 35/7/20 36/19/20
f 34/20/20 33/55/20 39/56/20 40/32/20
f 36/19/20 35/7/20 33/55/20 34/20/20
f 16/18/21 3/47/21 38/54/21 36/19/21
f 10/51/22 8/49/22 39/56/22 33/55/22
f 14/6/8 10/51/8 33/55/8 35/7/8
f 8/49/19 7/31/19 40/32/19 39/56/19
f 3/47/3 4/5/3 37/8/3 38/54/3
