# Blender v2.80 (sub 75) OBJ File: 'Plant 1.blend'
# www.blender.org
mtllib Plant 1.1.mtl
o Cube_Cube.001
v -0.337113 -1.988651 0.337113
v -0.800620 1.629604 0.792103
v -0.337113 -1.988651 -0.337113
v -0.800620 1.629604 -0.809136
v 0.337113 -1.988651 0.337113
v 0.800620 1.629604 0.799305
v 0.337113 -1.988651 -0.337113
v 0.800620 1.629604 -0.809136
v -0.680763 1.269713 0.680763
v -0.680763 1.269713 -0.680763
v 0.680763 1.269713 -0.680763
v 0.680763 1.269713 0.680763
v -0.337113 -1.988651 0.000000
v -0.800620 1.629604 -0.008516
v 0.337113 -1.988651 0.000000
v 0.800620 1.629604 -0.001314
v 0.680763 1.269713 0.000000
v -0.680763 1.269713 0.000000
v 0.000000 -1.988651 -0.337113
v 0.000000 1.629604 -0.809136
v 0.000000 -1.988651 0.337113
v 0.000000 1.629604 0.792103
v 0.000000 1.269713 0.680763
v 0.000000 1.269713 -0.680763
v 0.000000 1.988651 0.000000
v 0.000000 -1.988651 0.000000
v -0.337113 -1.988651 0.168557
v 0.800620 1.629604 0.398996
v 0.680763 1.269713 0.340381
v -0.800620 1.629604 0.391793
v 0.337113 -1.988651 0.168557
v -0.680763 1.269713 0.340381
v 0.000000 1.988651 0.497691
v 0.000000 -1.988651 0.168557
v -0.800620 1.629604 -0.408826
v 0.337113 -1.988651 -0.168557
v -0.680763 1.269713 -0.340381
v -0.337113 -1.988651 -0.168557
v 0.800620 1.629604 -0.408826
v 0.680763 1.269713 -0.340381
v 0.000000 -1.988651 -0.168557
v 0.000000 1.988651 -0.497691
v -0.168557 -1.988651 -0.337113
v -0.400310 1.629604 0.792103
v -0.340381 1.269713 0.680763
v -0.168557 -1.988651 0.000000
v -0.400310 1.629604 -0.809136
v -0.168557 -1.988651 0.337113
v -0.340381 1.269713 -0.680763
v -0.497691 1.988651 0.000000
v -0.168557 -1.988651 0.168557
v -0.497691 1.988651 0.497691
v -0.168557 -1.988651 -0.168557
v -0.497691 1.988651 -0.497691
v 0.400310 1.629604 -0.809136
v 0.168557 -1.988651 0.337113
v 0.340381 1.269713 -0.680763
v 0.497691 1.988651 0.000000
v 0.168557 -1.988651 -0.337113
v 0.400310 1.629604 0.799305
v 0.340381 1.269713 0.680763
v 0.168557 -1.988651 0.000000
v 0.497691 1.988651 0.497691
v 0.168557 -1.988651 0.168557
v 0.497691 1.988651 -0.497691
v 0.168557 -1.988651 -0.168557
v 1.532803 2.996726 1.175859
v 1.532803 2.996726 1.526627
v 1.813093 2.996726 -0.626297
v 1.813093 2.996726 -0.275529
v 1.462326 2.996726 -0.275529
v -0.855172 2.996726 -0.468478
v -0.504405 2.996726 -0.468478
v -0.504405 2.996726 -0.819246
v -0.235976 2.996726 1.402511
v -0.235976 2.996726 1.753278
v 1.182035 2.996726 1.175859
v -0.586743 2.996726 1.402511
v 1.462326 2.996726 -0.626297
v -0.855172 2.996726 -0.819246
v -0.586743 2.996726 1.753278
v 1.182035 2.996726 1.526627
v -1.191999 2.988850 1.526627
v -1.542767 2.988850 1.526627
v 0.670974 2.988850 1.753278
v 0.320207 2.988850 1.753278
v 0.600497 2.988850 -0.819246
v 0.600497 2.988850 -0.468478
v 0.320207 2.988850 1.402511
v -1.542767 2.988850 1.175859
v -1.811196 3.005162 -0.275301
v -1.811196 3.005162 -0.626069
v -1.460428 3.005162 -0.275301
v -1.191999 2.988850 1.175859
v -1.460428 3.005162 -0.626069
v 0.951265 2.988850 -0.468478
v 0.670974 2.988850 1.402511
v 0.951265 2.988850 -0.819246
v 1.179365 2.988850 -1.485396
v 1.535473 2.988850 -1.485396
v 1.462326 2.988850 0.334280
v 1.813093 2.988850 0.334280
v -0.586743 2.988850 -1.675674
v -0.235976 2.988850 -1.675674
v -0.855172 2.988850 0.560931
v -0.504405 2.988850 0.560931
v 1.813093 2.988850 0.685048
v -0.504405 2.988850 0.911699
v 1.462326 2.988850 0.685048
v -0.855172 2.988850 0.911699
v 1.535473 2.988850 -1.129287
v -0.235976 2.988850 -1.324906
v 1.179365 2.988850 -1.129287
v -0.586743 2.988850 -1.324906
v -1.542767 2.988850 -1.131958
v -1.542767 2.988850 -1.482726
v -1.811196 2.988850 0.685048
v -1.811196 2.988850 0.334280
v 0.600497 2.988850 0.560931
v 0.600497 2.988850 0.911699
v 0.320207 2.988850 -1.675674
v 0.320207 2.988850 -1.324906
v -1.191999 2.988850 -1.482726
v -1.460428 2.988850 0.334280
v -1.460428 2.988850 0.685048
v -1.191999 2.988850 -1.131958
v 0.670974 2.988850 -1.675674
v 0.951265 2.988850 0.560931
v 0.951265 2.988850 0.911699
v 0.670974 2.988850 -1.324906
vt 0.558278 0.187500
vt 0.625000 0.187500
vt 0.625000 0.250000
vt 0.558278 0.250000
vt 0.558278 0.437500
vt 0.625000 0.437500
vt 0.625000 0.500000
vt 0.558278 0.500000
vt 0.558278 0.687500
vt 0.625000 0.687500
vt 0.625000 0.750000
vt 0.558278 0.750000
vt 0.558278 0.937500
vt 0.625000 0.937500
vt 0.625000 1.000000
vt 0.558278 1.000000
vt 0.312500 0.687500
vt 0.375000 0.687500
vt 0.375000 0.750000
vt 0.312500 0.750000
vt 0.687500 0.562500
vt 0.750000 0.562500
vt 0.750000 0.562500
vt 0.687500 0.562500
vt 0.375000 0.937500
vt 0.375000 1.000000
vt 0.375000 0.437500
vt 0.375000 0.500000
vt 0.375000 0.187500
vt 0.375000 0.250000
vt 0.375000 0.062500
vt 0.558278 0.062500
vt 0.558278 0.125000
vt 0.375000 0.125000
vt 0.375000 0.562500
vt 0.558278 0.562500
vt 0.558278 0.625000
vt 0.375000 0.625000
vt 0.687500 0.750000
vt 0.687500 0.687500
vt 0.687500 0.687500
vt 0.687500 0.750000
vt 0.312500 0.562500
vt 0.312500 0.625000
vt 0.625000 0.562500
vt 0.625000 0.625000
vt 0.625000 0.062500
vt 0.625000 0.125000
vt 0.187500 0.562500
vt 0.250000 0.562500
vt 0.250000 0.625000
vt 0.187500 0.625000
vt 0.812500 0.562500
vt 0.875000 0.562500
vt 0.875000 0.562500
vt 0.812500 0.562500
vt 0.375000 0.312500
vt 0.558278 0.312500
vt 0.558278 0.375000
vt 0.375000 0.375000
vt 0.375000 0.812500
vt 0.558278 0.812500
vt 0.558278 0.875000
vt 0.375000 0.875000
vt 0.750000 0.687500
vt 0.750000 0.687500
vt 0.187500 0.687500
vt 0.250000 0.687500
vt 0.250000 0.750000
vt 0.187500 0.750000
vt 0.625000 0.812500
vt 0.625000 0.875000
vt 0.625000 0.312500
vt 0.625000 0.375000
vt 0.750000 0.625000
vt 0.750000 0.687500
vt 0.750000 0.625000
vt 0.558278 0.000000
vt 0.625000 0.000000
vt 0.375000 0.000000
vt 0.812500 0.562500
vt 0.875000 0.562500
vt 0.625000 0.187500
vt 0.625000 0.250000
vt 0.187500 0.500000
vt 0.250000 0.500000
vt 0.312500 0.500000
vt 0.687500 0.687500
vt 0.750000 0.562500
vt 0.812500 0.562500
vt 0.125000 0.500000
vt 0.125000 0.562500
vt 0.812500 0.687500
vt 0.750000 0.687500
vt 0.812500 0.687500
vt 0.125000 0.625000
vt 0.125000 0.687500
vt 0.125000 0.750000
vt 0.812500 0.562500
vt 0.750000 0.562500
vt 0.812500 0.687500
vt 0.750000 0.687500
vt 0.625000 0.500000
vt 0.625000 0.562500
vt 0.812500 0.625000
vt 0.812500 0.625000
vt 0.750000 0.625000
vt 0.750000 0.625000
vt 0.812500 0.625000
vt 0.625000 0.562500
vt 0.625000 0.625000
vt 0.812500 0.750000
vt 0.750000 0.750000
vt 0.625000 0.687500
vt 0.687500 0.687500
vt 0.687500 0.750000
vt 0.625000 0.750000
vt 0.687500 0.562500
vt 0.687500 0.625000
vt 0.687500 0.625000
vt 0.625000 0.812500
vt 0.812500 0.750000
vt 0.750000 0.750000
vt 0.625000 0.875000
vt 0.625000 0.937500
vt 0.812500 0.687500
vt 0.875000 0.687500
vt 0.875000 0.750000
vt 0.812500 0.750000
vt 0.875000 0.625000
vt 0.812500 0.625000
vt 0.750000 0.625000
vt 0.687500 0.625000
vt 0.750000 0.750000
vt 0.625000 0.937500
vt 0.625000 1.000000
vt 0.625000 0.125000
vt 0.625000 0.187500
vt 0.625000 0.812500
vt 0.625000 0.875000
vt 0.875000 0.625000
vt 0.625000 0.000000
vt 0.625000 0.062500
vt 0.875000 0.687500
vt 0.750000 0.500000
vt 0.812500 0.500000
vt 0.687500 0.500000
vt 0.687500 0.562500
vt 0.625000 0.625000
vt 0.687500 0.625000
vt 0.687500 0.687500
vt 0.625000 0.687500
vt 0.812500 0.500000
vt 0.625000 0.312500
vt 0.625000 0.375000
vt 0.750000 0.500000
vt 0.625000 0.437500
vt 0.687500 0.500000
vt 0.687500 0.625000
vt 0.812500 0.625000
vt 0.875000 0.625000
vt 0.875000 0.687500
vt 0.812500 0.687500
vt 0.687500 0.500000
vt 0.750000 0.500000
vt 0.750000 0.562500
vt 0.687500 0.562500
vt 0.812500 0.500000
vt 0.875000 0.500000
vt 0.625000 0.312500
vt 0.625000 0.062500
vt 0.625000 0.125000
vt 0.625000 0.375000
vt 0.625000 0.437500
vn -0.9488 -0.3160 0.0000
vn 0.0000 -0.3360 -0.9419
vn 0.9488 -0.3160 0.0000
vn 0.0000 -0.2956 0.9553
vn 0.0000 -1.0000 0.0000
vn 0.0000 -0.3061 -0.9520
vn 0.0000 -0.1049 0.9945
vn 0.9945 -0.1049 0.0000
vn 0.0000 -0.1049 -0.9945
vn -0.9945 -0.1049 0.0000
vn 0.9775 -0.2085 0.0312
vn -0.0383 -0.1738 -0.9840
vn 0.0000 0.6709 -0.7416
vn -0.0093 -0.3035 0.9528
vn -0.8573 0.5147 0.0000
vn -0.1201 0.4391 0.8904
vn -0.8777 -0.4792 0.0000
vn 0.0000 -0.3825 0.9240
vn 0.0000 0.6373 0.7706
vn 0.0000 -0.3039 -0.9527
vn 0.0000 0.6680 -0.7442
vn 0.8797 -0.4756 0.0000
vn 0.0000 0.4891 -0.8722
vn 0.0000 -0.3129 0.9498
vn 0.0000 0.4214 0.9069
vn 0.8036 -0.5951 0.0000
vn 0.0000 1.0000 0.0000
vn -0.8757 0.4661 0.1258
vn -0.9425 -0.3342 0.0000
vn 0.8943 0.4475 0.0000
vn -0.7225 0.6914 0.0000
vn 0.1226 0.4643 -0.8772
vn 0.0000 -0.4697 0.8828
vn 0.0378 -0.1748 -0.9839
vn 0.0872 0.1552 0.9840
vn -0.9852 -0.1608 0.0592
vn 0.9877 0.1366 0.0760
vn 0.0000 -0.5751 0.8181
vn 0.8815 -0.4721 0.0000
vn 0.0000 0.4242 0.9056
vn 0.0000 -0.4754 0.8798
vn 0.7260 0.6876 0.0000
vn 0.9107 -0.4130 0.0000
vn -0.8059 -0.5921 0.0000
vn -0.0078 -0.5748 0.8183
vn -0.0932 0.1463 0.9848
vn 0.8723 0.4712 0.1306
vn -0.9775 0.1842 0.1025
vn -0.1169 0.4708 -0.8745
vn 0.8929 0.4503 0.0000
vn -0.9857 -0.1577 -0.0594
vn 0.0000 -0.5376 -0.8432
vn 0.9869 0.1421 -0.0770
vn 0.8020 -0.5974 0.0000
vn 0.0000 -0.4454 -0.8953
vn -0.9417 -0.3366 0.0000
vn 0.0272 -0.2185 0.9754
vn 0.1190 0.4389 0.8906
vn 0.1029 0.1909 -0.9762
vn -0.8732 0.4708 -0.1259
vn -0.7198 0.6942 0.0000
vn 0.0000 -0.4440 -0.8960
vn 0.8699 0.4758 -0.1300
vn -0.9762 0.1907 -0.1034
vn 0.7205 0.6935 0.0000
vn -0.0966 0.1990 -0.9752
vn 0.9779 -0.2068 -0.0317
vn -0.8025 -0.5966 0.0000
vn -0.0334 -0.2263 0.9735
usemtl None
s off
f 37/1/1 35/2/1 4/3/1 10/4/1
f 57/5/2 55/6/2 8/7/2 11/8/2
f 29/9/3 28/10/3 6/11/3 12/12/3
f 45/13/4 44/14/4 2/15/4 9/16/4
f 64/17/5 31/18/5 5/19/5 56/20/5
f 65/21/6 42/22/6 87/23/6 98/24/6
f 48/25/7 45/13/7 9/16/7 1/26/7
f 31/18/8 29/9/8 12/12/8 5/19/8
f 59/27/9 57/5/9 11/8/9 7/28/9
f 38/29/10 37/1/10 10/4/10 3/30/10
f 27/31/10 32/32/10 18/33/10 13/34/10
f 36/35/8 40/36/8 17/37/8 15/38/8
f 60/39/11 63/40/11 97/41/11 85/42/11
f 66/43/5 36/35/5 15/38/5 62/44/5
f 40/36/3 39/45/3 16/46/3 17/37/3
f 32/32/1 30/47/1 14/48/1 18/33/1
f 53/49/5 41/50/5 26/51/5 46/52/5
f 54/53/12 35/54/12 92/55/12 95/56/12
f 43/57/9 49/58/9 24/59/9 19/60/9
f 56/61/7 61/62/7 23/63/7 21/64/7
f 63/40/13 33/65/13 89/66/13 97/41/13
f 51/67/5 34/68/5 21/69/5 48/70/5
f 61/62/14 60/71/14 22/72/14 23/63/14
f 49/58/2 47/73/2 20/74/2 24/59/2
f 46/52/5 26/51/5 34/68/5 51/67/5
f 25/75/15 33/65/15 120/76/15 119/77/15
f 9/78/1 2/79/1 30/47/1 32/32/1
f 1/80/10 9/78/10 32/32/10 27/31/10
f 15/38/8 17/37/8 29/9/8 31/18/8
f 35/54/16 54/53/16 126/81/16 115/82/16
f 62/44/5 15/38/5 31/18/5 64/17/5
f 17/37/3 16/46/3 28/10/3 29/9/3
f 4/3/17 35/2/17 115/83/17 116/84/17
f 43/85/5 19/86/5 41/50/5 53/49/5
f 11/8/3 8/7/3 39/45/3 40/36/3
f 59/87/5 7/28/5 36/35/5 66/43/5
f 33/65/18 63/40/18 129/88/18 120/76/18
f 7/28/8 11/8/8 40/36/8 36/35/8
f 13/34/10 18/33/10 37/1/10 38/29/10
f 18/33/1 14/48/1 35/2/1 37/1/1
f 54/53/19 42/22/19 112/89/19 114/90/19
f 3/91/5 43/85/5 53/49/5 38/92/5
f 52/93/18 33/65/18 108/94/18 110/95/18
f 13/96/5 46/52/5 51/67/5 27/97/5
f 10/4/2 4/3/2 47/73/2 49/58/2
f 27/97/5 51/67/5 48/70/5 1/98/5
f 3/30/9 10/4/9 49/58/9 43/57/9
f 38/92/5 53/49/5 46/52/5 13/96/5
f 42/22/20 54/53/20 80/99/20 74/100/20
f 21/64/7 23/63/7 45/13/7 48/25/7
f 33/65/21 52/93/21 78/101/21 75/102/21
f 23/63/4 22/72/4 44/14/4 45/13/4
f 19/86/5 59/87/5 66/43/5 41/50/5
f 39/45/22 8/7/22 100/103/22 111/104/22
f 26/51/5 62/44/5 64/17/5 34/68/5
f 25/75/23 50/105/23 105/106/23 106/107/23
f 12/12/24 6/11/24 60/71/24 61/62/24
f 50/105/25 25/75/25 73/108/25 72/109/25
f 5/19/7 12/12/7 61/62/7 56/61/7
f 16/46/26 39/45/26 69/110/26 70/111/26
f 41/50/5 66/43/5 62/44/5 26/51/5
f 19/60/9 24/59/9 57/5/9 59/27/9
f 34/68/5 64/17/5 56/20/5 21/69/5
f 24/59/2 20/74/2 55/6/2 57/5/2
f 74/100/27 80/99/27 72/109/27 73/108/27
f 75/102/27 78/101/27 81/112/27 76/113/27
f 67/114/27 77/115/27 82/116/27 68/117/27
f 69/110/27 79/118/27 71/119/27 70/111/27
f 63/40/28 60/39/28 82/116/28 77/115/28
f 54/53/29 50/105/29 72/109/29 80/99/29
f 25/75/30 42/22/30 74/100/30 73/108/30
f 65/21/31 58/120/31 71/119/31 79/118/31
f 28/10/32 63/40/32 77/115/32 67/114/32
f 60/71/33 6/11/33 68/117/33 82/121/33
f 39/45/34 65/21/34 79/118/34 69/110/34
f 58/120/35 16/46/35 70/111/35 71/119/35
f 52/93/36 44/122/36 81/112/36 78/101/36
f 22/123/37 33/65/37 75/102/37 76/113/37
f 44/14/38 22/72/38 76/124/38 81/125/38
f 6/11/39 28/10/39 67/114/39 68/117/39
f 94/126/27 90/127/27 84/128/27 83/129/27
f 95/56/27 92/55/27 91/130/27 93/131/27
f 98/24/27 87/23/27 88/132/27 96/133/27
f 97/41/27 89/66/27 86/134/27 85/42/27
f 25/75/40 58/120/40 96/133/40 88/132/40
f 2/15/41 44/14/41 83/135/41 84/136/41
f 50/105/42 54/53/42 95/56/42 93/131/42
f 42/22/15 25/75/15 88/132/15 87/23/15
f 58/120/43 65/21/43 98/24/43 96/133/43
f 35/2/44 14/48/44 91/137/44 92/138/44
f 22/72/45 60/71/45 85/139/45 86/140/45
f 14/141/46 50/105/46 93/131/46 91/130/46
f 44/122/47 52/93/47 94/126/47 83/129/47
f 30/47/17 2/79/17 84/142/17 90/143/17
f 33/65/48 22/123/48 86/134/48 89/66/48
f 52/93/49 30/144/49 90/127/49 94/126/49
f 104/145/27 103/146/27 114/90/27 112/89/27
f 106/107/27 105/106/27 110/95/27 108/94/27
f 100/103/27 99/147/27 113/148/27 111/104/27
f 102/149/27 101/150/27 109/151/27 107/152/27
f 33/65/50 25/75/50 106/107/50 108/94/50
f 47/153/51 54/53/51 114/90/51 103/146/51
f 20/74/52 47/73/52 103/154/52 104/155/52
f 42/22/53 20/156/53 104/145/53 112/89/53
f 28/10/54 16/46/54 102/149/54 107/152/54
f 8/7/55 55/6/55 99/157/55 100/103/55
f 50/105/56 52/93/56 110/95/56 105/106/56
f 63/40/57 28/10/57 107/152/57 109/151/57
f 65/21/58 39/45/58 111/104/58 113/148/58
f 16/46/59 58/120/59 101/150/59 102/149/59
f 55/158/60 65/21/60 113/148/60 99/147/60
f 58/120/61 63/40/61 109/151/61 101/150/61
f 128/159/27 119/77/27 120/76/27 129/88/27
f 124/160/27 118/161/27 117/162/27 125/163/27
f 127/164/27 121/165/27 122/166/27 130/167/27
f 123/168/27 116/169/27 115/82/27 126/81/27
f 47/73/62 4/3/62 116/84/62 123/170/62
f 42/22/19 65/21/19 130/167/19 122/166/19
f 54/53/63 47/153/63 123/168/63 126/81/63
f 58/120/23 25/75/23 119/77/23 128/159/23
f 20/156/64 42/22/64 122/166/64 121/165/64
f 52/93/65 50/105/65 124/160/65 125/163/65
f 50/105/66 14/141/66 118/161/66 124/160/66
f 65/21/67 55/158/67 127/164/67 130/167/67
f 14/48/68 30/47/68 117/171/68 118/172/68
f 30/144/69 52/93/69 125/163/69 117/162/69
f 55/6/52 20/74/52 121/173/52 127/174/52
f 63/40/43 58/120/43 128/159/43 129/88/43
