# Blender v2.80 (sub 75) OBJ File: 'Plant 3.blend'
# www.blender.org
mtllib Plant 3.2.mtl
o Cube.001_Cube.002
v -0.140892 0.108336 2.276000
v -0.140892 0.292465 2.140424
v -0.140892 -1.030363 0.729505
v -0.140892 -0.846235 0.593930
v 0.140892 0.108336 2.276000
v 0.140892 0.292465 2.140424
v 0.140892 -1.030363 0.729505
v 0.140892 -0.846235 0.593930
v -0.140892 -0.064552 2.673109
v -0.140892 0.139695 2.522719
v -0.140892 -1.423910 0.826932
v -0.140892 -1.219663 0.676543
v 0.140892 -0.064552 2.673109
v 0.140892 0.139695 2.522719
v 0.140892 -1.423910 0.826932
v 0.140892 -1.219663 0.676543
v -0.140892 -0.600245 2.668017
v -0.140892 -0.431009 2.543408
v -0.140892 -1.483127 1.468955
v -0.140892 -1.313891 1.344345
v 0.140892 -0.600245 2.668017
v 0.140892 -0.431009 2.543408
v 0.140892 -1.483127 1.468955
v 0.140892 -1.313891 1.344345
v -0.140892 -1.932366 -0.761566
v -0.140892 -1.791206 -0.734682
v -0.140892 -1.657906 -2.202680
v -0.140892 -1.516746 -2.175797
v 0.140892 -1.932366 -0.761566
v 0.140892 -1.791206 -0.734682
v 0.140892 -1.657906 -2.202680
v 0.140892 -1.516746 -2.175797
v -0.140892 -2.311789 -0.540208
v -0.140892 -2.168248 -0.512871
v -0.140892 -1.929746 -2.546214
v -0.140892 -1.786205 -2.518877
v 0.140892 -2.311789 -0.540208
v 0.140892 -2.168248 -0.512871
v 0.140892 -1.929746 -2.546214
v 0.140892 -1.786205 -2.518877
v -0.140892 1.332662 -0.880790
v -0.140892 1.422547 -0.992904
v -0.140892 0.188084 -1.798440
v -0.140892 0.277969 -1.910553
v 0.140892 1.332662 -0.880790
v 0.140892 1.422547 -0.992904
v 0.140892 0.188084 -1.798440
v 0.140892 0.277969 -1.910553
v -0.140892 1.793363 -1.041149
v -0.140892 1.968006 -1.258979
v -0.140892 0.191904 -2.325097
v -0.140892 0.366546 -2.542927
v 0.140892 1.793363 -1.041149
v 0.140892 1.968006 -1.258979
v 0.140892 0.191904 -2.325097
v 0.140892 0.366546 -2.542927
v -0.140892 5.413730 -2.482303
v -0.140892 5.392343 -2.626852
v -0.140892 3.094102 -2.139088
v -0.140892 3.072714 -2.283638
v 0.140892 5.413730 -2.482303
v 0.140892 5.392343 -2.626852
v 0.140892 3.094102 -2.139088
v 0.140892 3.072714 -2.283638
v -0.140892 5.659385 -2.845285
v -0.140892 5.637889 -2.990574
v -0.140892 2.848556 -2.429393
v -0.140892 2.827060 -2.574681
v 0.140892 5.659385 -2.845285
v 0.140892 5.637889 -2.990574
v 0.140892 2.848556 -2.429393
v 0.140892 2.827060 -2.574681
v -0.140892 5.199054 -3.121705
v -0.140892 5.177667 -3.266247
v -0.140892 3.308778 -2.842018
v -0.140892 3.287391 -2.986559
v 0.140892 5.199054 -3.121705
v 0.140892 5.177667 -3.266247
v 0.140892 3.308778 -2.842018
v 0.140892 3.287391 -2.986559
v -0.140892 5.256875 0.098233
v -0.140892 5.400568 0.099340
v -0.140892 5.267104 -1.229527
v -0.140892 5.410797 -1.228420
v 0.140892 5.256875 0.098233
v 0.140892 5.400568 0.099340
v 0.140892 5.267104 -1.229527
v 0.140892 5.410797 -1.228420
v -0.140892 5.570237 0.196938
v -0.140892 5.713931 0.198045
v -0.140892 5.581987 -1.328230
v -0.140892 5.725681 -1.327123
v 0.140892 5.570237 0.196938
v 0.140892 5.713931 0.198045
v 0.140892 5.581987 -1.328230
v 0.140892 5.725681 -1.327123
v -0.140892 7.105280 3.029513
v -0.140892 7.351045 3.031407
v -0.140892 7.122736 0.763679
v -0.140892 7.368500 0.765572
v 0.140892 7.105280 3.029513
v 0.140892 7.351045 3.031407
v 0.140892 7.122736 0.763679
v 0.140892 7.368500 0.765572
v -0.140892 7.716902 3.717053
v -0.140892 7.962677 3.718947
v -0.140892 7.744952 0.076138
v -0.140892 7.990728 0.078032
v 0.140892 7.716902 3.717053
v 0.140892 7.962677 3.718947
v 0.140892 7.744952 0.076138
v 0.140892 7.990728 0.078032
v -0.140892 4.252575 3.057412
v -0.140892 4.378690 2.988533
v -0.140892 3.499712 1.678947
v -0.140892 3.625827 1.610068
v 0.140892 4.252575 3.057412
v 0.140892 4.378690 2.988533
v 0.140892 3.499712 1.678947
v 0.140892 3.625827 1.610068
v -0.140892 4.026260 3.506133
v -0.140892 4.169688 3.427798
v -0.140892 2.939936 1.517113
v -0.140892 3.083364 1.438778
v 0.140892 4.026260 3.506133
v 0.140892 4.169688 3.427798
v 0.140892 2.939936 1.517113
v 0.140892 3.083364 1.438778
v -0.140892 3.604248 3.618415
v -0.140892 3.742243 3.543048
v -0.140892 2.662968 1.894965
v -0.140892 2.800962 1.819598
v 0.140892 3.604248 3.618415
v 0.140892 3.742243 3.543048
v 0.140892 2.662968 1.894965
v 0.140892 2.800962 1.819598
vt 0.375000 0.000000
vt 0.625000 0.000000
vt 0.625000 0.250000
vt 0.375000 0.250000
vt 0.625000 0.500000
vt 0.375000 0.500000
vt 0.625000 0.750000
vt 0.375000 0.750000
vt 0.625000 1.000000
vt 0.375000 1.000000
vt 0.125000 0.500000
vt 0.125000 0.750000
vt 0.875000 0.500000
vt 0.875000 0.750000
vt 0.375000 0.000000
vt 0.625000 0.000000
vt 0.625000 0.250000
vt 0.375000 0.250000
vt 0.625000 0.500000
vt 0.375000 0.500000
vt 0.625000 0.750000
vt 0.375000 0.750000
vt 0.625000 1.000000
vt 0.375000 1.000000
vt 0.125000 0.500000
vt 0.125000 0.750000
vt 0.875000 0.500000
vt 0.875000 0.750000
vt 0.375000 0.000000
vt 0.625000 0.000000
vt 0.625000 0.250000
vt 0.375000 0.250000
vt 0.625000 0.500000
vt 0.375000 0.500000
vt 0.625000 0.750000
vt 0.375000 0.750000
vt 0.625000 1.000000
vt 0.375000 1.000000
vt 0.125000 0.500000
vt 0.125000 0.750000
vt 0.875000 0.500000
vt 0.875000 0.750000
vt 0.375000 0.000000
vt 0.625000 0.000000
vt 0.625000 0.250000
vt 0.375000 0.250000
vt 0.625000 0.500000
vt 0.375000 0.500000
vt 0.625000 0.750000
vt 0.375000 0.750000
vt 0.625000 1.000000
vt 0.375000 1.000000
vt 0.125000 0.500000
vt 0.125000 0.750000
vt 0.875000 0.500000
vt 0.875000 0.750000
vt 0.375000 0.000000
vt 0.625000 0.000000
vt 0.625000 0.250000
vt 0.375000 0.250000
vt 0.625000 0.500000
vt 0.375000 0.500000
vt 0.625000 0.750000
vt 0.375000 0.750000
vt 0.625000 1.000000
vt 0.375000 1.000000
vt 0.125000 0.500000
vt 0.125000 0.750000
vt 0.875000 0.500000
vt 0.875000 0.750000
vt 0.375000 0.000000
vt 0.625000 0.000000
vt 0.625000 0.250000
vt 0.375000 0.250000
vt 0.625000 0.500000
vt 0.375000 0.500000
vt 0.625000 0.750000
vt 0.375000 0.750000
vt 0.625000 1.000000
vt 0.375000 1.000000
vt 0.125000 0.500000
vt 0.125000 0.750000
vt 0.875000 0.500000
vt 0.875000 0.750000
vt 0.375000 0.000000
vt 0.625000 0.000000
vt 0.625000 0.250000
vt 0.375000 0.250000
vt 0.625000 0.500000
vt 0.375000 0.500000
vt 0.625000 0.750000
vt 0.375000 0.750000
vt 0.625000 1.000000
vt 0.375000 1.000000
vt 0.125000 0.500000
vt 0.125000 0.750000
vt 0.875000 0.500000
vt 0.875000 0.750000
vt 0.375000 0.000000
vt 0.625000 0.000000
vt 0.625000 0.250000
vt 0.375000 0.250000
vt 0.625000 0.500000
vt 0.375000 0.500000
vt 0.625000 0.750000
vt 0.375000 0.750000
vt 0.625000 1.000000
vt 0.375000 1.000000
vt 0.125000 0.500000
vt 0.125000 0.750000
vt 0.875000 0.500000
vt 0.875000 0.750000
vt 0.375000 0.000000
vt 0.625000 0.000000
vt 0.625000 0.250000
vt 0.375000 0.250000
vt 0.625000 0.500000
vt 0.375000 0.500000
vt 0.625000 0.750000
vt 0.375000 0.750000
vt 0.625000 1.000000
vt 0.375000 1.000000
vt 0.125000 0.500000
vt 0.125000 0.750000
vt 0.875000 0.500000
vt 0.875000 0.750000
vt 0.375000 0.000000
vt 0.625000 0.000000
vt 0.625000 0.250000
vt 0.375000 0.250000
vt 0.625000 0.500000
vt 0.375000 0.500000
vt 0.625000 0.750000
vt 0.375000 0.750000
vt 0.625000 1.000000
vt 0.375000 1.000000
vt 0.125000 0.500000
vt 0.125000 0.750000
vt 0.875000 0.500000
vt 0.875000 0.750000
vt 0.375000 0.000000
vt 0.625000 0.000000
vt 0.625000 0.250000
vt 0.375000 0.250000
vt 0.625000 0.500000
vt 0.375000 0.500000
vt 0.625000 0.750000
vt 0.375000 0.750000
vt 0.625000 1.000000
vt 0.375000 1.000000
vt 0.125000 0.500000
vt 0.125000 0.750000
vt 0.875000 0.500000
vt 0.875000 0.750000
vt 0.375000 0.000000
vt 0.625000 0.000000
vt 0.625000 0.250000
vt 0.375000 0.250000
vt 0.625000 0.500000
vt 0.375000 0.500000
vt 0.625000 0.750000
vt 0.375000 0.750000
vt 0.625000 1.000000
vt 0.375000 1.000000
vt 0.125000 0.500000
vt 0.125000 0.750000
vt 0.875000 0.500000
vt 0.875000 0.750000
vt 0.375000 0.000000
vt 0.625000 0.000000
vt 0.625000 0.250000
vt 0.375000 0.250000
vt 0.625000 0.500000
vt 0.375000 0.500000
vt 0.625000 0.750000
vt 0.375000 0.750000
vt 0.625000 1.000000
vt 0.375000 1.000000
vt 0.125000 0.500000
vt 0.125000 0.750000
vt 0.875000 0.500000
vt 0.875000 0.750000
vt 0.375000 0.000000
vt 0.625000 0.000000
vt 0.625000 0.250000
vt 0.375000 0.250000
vt 0.625000 0.500000
vt 0.375000 0.500000
vt 0.625000 0.750000
vt 0.375000 0.750000
vt 0.625000 1.000000
vt 0.375000 1.000000
vt 0.125000 0.500000
vt 0.125000 0.750000
vt 0.875000 0.500000
vt 0.875000 0.750000
vt 0.375000 0.000000
vt 0.625000 0.000000
vt 0.625000 0.250000
vt 0.375000 0.250000
vt 0.625000 0.500000
vt 0.375000 0.500000
vt 0.625000 0.750000
vt 0.375000 0.750000
vt 0.625000 1.000000
vt 0.375000 1.000000
vt 0.125000 0.500000
vt 0.125000 0.750000
vt 0.875000 0.500000
vt 0.875000 0.750000
vt 0.375000 0.000000
vt 0.625000 0.000000
vt 0.625000 0.250000
vt 0.375000 0.250000
vt 0.625000 0.500000
vt 0.375000 0.500000
vt 0.625000 0.750000
vt 0.375000 0.750000
vt 0.625000 1.000000
vt 0.375000 1.000000
vt 0.125000 0.500000
vt 0.125000 0.750000
vt 0.875000 0.500000
vt 0.875000 0.750000
vt 0.375000 0.000000
vt 0.625000 0.000000
vt 0.625000 0.250000
vt 0.375000 0.250000
vt 0.625000 0.500000
vt 0.375000 0.500000
vt 0.625000 0.750000
vt 0.375000 0.750000
vt 0.625000 1.000000
vt 0.375000 1.000000
vt 0.125000 0.500000
vt 0.125000 0.750000
vt 0.875000 0.500000
vt 0.875000 0.750000
vn -1.0000 -0.0000 0.0000
vn 0.0000 -0.5929 -0.8053
vn 1.0000 0.0000 0.0000
vn 0.0000 0.5929 0.8053
vn 0.0000 -0.8053 0.5929
vn 0.0000 0.8053 -0.5929
vn 0.0000 0.1871 -0.9823
vn 0.0000 -0.1871 0.9823
vn 0.0000 -0.9823 -0.1871
vn 0.0000 0.9823 0.1871
vn 0.0000 -0.7802 -0.6255
vn 0.0000 0.7802 0.6255
vn 0.0000 -0.6255 0.7802
vn 0.0000 0.6255 -0.7802
vn 0.0000 -0.9892 0.1464
vn 0.0000 0.9892 -0.1464
vn 0.0000 0.1464 0.9892
vn 0.0000 -0.1464 -0.9892
vn 0.0000 0.0077 -1.0000
vn 0.0000 -0.0077 1.0000
vn 0.0000 -1.0000 -0.0077
vn 0.0000 1.0000 0.0077
vn 0.0000 -0.4793 -0.8776
vn 0.0000 0.4793 0.8776
vn 0.0000 -0.8776 0.4793
vn 0.0000 0.8776 -0.4793
usemtl None
s off
f 1/1/1 2/2/1 4/3/1 3/4/1
f 3/4/2 4/3/2 8/5/2 7/6/2
f 7/6/3 8/5/3 6/7/3 5/8/3
f 5/8/4 6/7/4 2/9/4 1/10/4
f 3/11/5 7/6/5 5/8/5 1/12/5
f 8/5/6 4/13/6 2/14/6 6/7/6
f 9/15/1 10/16/1 12/17/1 11/18/1
f 11/18/2 12/17/2 16/19/2 15/20/2
f 15/20/3 16/19/3 14/21/3 13/22/3
f 13/22/4 14/21/4 10/23/4 9/24/4
f 11/25/5 15/20/5 13/22/5 9/26/5
f 16/19/6 12/27/6 10/28/6 14/21/6
f 17/29/1 18/30/1 20/31/1 19/32/1
f 19/32/2 20/31/2 24/33/2 23/34/2
f 23/34/3 24/33/3 22/35/3 21/36/3
f 21/36/4 22/35/4 18/37/4 17/38/4
f 19/39/5 23/34/5 21/36/5 17/40/5
f 24/33/6 20/41/6 18/42/6 22/35/6
f 25/43/1 26/44/1 28/45/1 27/46/1
f 27/46/7 28/45/7 32/47/7 31/48/7
f 31/48/3 32/47/3 30/49/3 29/50/3
f 29/50/8 30/49/8 26/51/8 25/52/8
f 27/53/9 31/48/9 29/50/9 25/54/9
f 32/47/10 28/55/10 26/56/10 30/49/10
f 33/57/1 34/58/1 36/59/1 35/60/1
f 35/60/7 36/59/7 40/61/7 39/62/7
f 39/62/3 40/61/3 38/63/3 37/64/3
f 37/64/8 38/63/8 34/65/8 33/66/8
f 35/67/9 39/62/9 37/64/9 33/68/9
f 40/61/10 36/69/10 34/70/10 38/63/10
f 41/71/1 42/72/1 44/73/1 43/74/1
f 43/74/11 44/73/11 48/75/11 47/76/11
f 47/76/3 48/75/3 46/77/3 45/78/3
f 45/78/12 46/77/12 42/79/12 41/80/12
f 43/81/13 47/76/13 45/78/13 41/82/13
f 48/75/14 44/83/14 42/84/14 46/77/14
f 49/85/1 50/86/1 52/87/1 51/88/1
f 51/88/11 52/87/11 56/89/11 55/90/11
f 55/90/3 56/89/3 54/91/3 53/92/3
f 53/92/12 54/91/12 50/93/12 49/94/12
f 51/95/13 55/90/13 53/92/13 49/96/13
f 56/89/14 52/97/14 50/98/14 54/91/14
f 57/99/1 58/100/1 60/101/1 59/102/1
f 59/102/15 60/101/15 64/103/15 63/104/15
f 63/104/3 64/103/3 62/105/3 61/106/3
f 61/106/16 62/105/16 58/107/16 57/108/16
f 59/109/17 63/104/17 61/106/17 57/110/17
f 64/103/18 60/111/18 58/112/18 62/105/18
f 65/113/1 66/114/1 68/115/1 67/116/1
f 67/116/15 68/115/15 72/117/15 71/118/15
f 71/118/3 72/117/3 70/119/3 69/120/3
f 69/120/16 70/119/16 66/121/16 65/122/16
f 67/123/17 71/118/17 69/120/17 65/124/17
f 72/117/18 68/125/18 66/126/18 70/119/18
f 73/127/1 74/128/1 76/129/1 75/130/1
f 75/130/15 76/129/15 80/131/15 79/132/15
f 79/132/3 80/131/3 78/133/3 77/134/3
f 77/134/16 78/133/16 74/135/16 73/136/16
f 75/137/17 79/132/17 77/134/17 73/138/17
f 80/131/18 76/139/18 74/140/18 78/133/18
f 81/141/1 82/142/1 84/143/1 83/144/1
f 83/144/19 84/143/19 88/145/19 87/146/19
f 87/146/3 88/145/3 86/147/3 85/148/3
f 85/148/20 86/147/20 82/149/20 81/150/20
f 83/151/21 87/146/21 85/148/21 81/152/21
f 88/145/22 84/153/22 82/154/22 86/147/22
f 89/155/1 90/156/1 92/157/1 91/158/1
f 91/158/19 92/157/19 96/159/19 95/160/19
f 95/160/3 96/159/3 94/161/3 93/162/3
f 93/162/20 94/161/20 90/163/20 89/164/20
f 91/165/21 95/160/21 93/162/21 89/166/21
f 96/159/22 92/167/22 90/168/22 94/161/22
f 97/169/1 98/170/1 100/171/1 99/172/1
f 99/172/19 100/171/19 104/173/19 103/174/19
f 103/174/3 104/173/3 102/175/3 101/176/3
f 101/176/20 102/175/20 98/177/20 97/178/20
f 99/179/21 103/174/21 101/176/21 97/180/21
f 104/173/22 100/181/22 98/182/22 102/175/22
f 105/183/1 106/184/1 108/185/1 107/186/1
f 107/186/19 108/185/19 112/187/19 111/188/19
f 111/188/3 112/187/3 110/189/3 109/190/3
f 109/190/20 110/189/20 106/191/20 105/192/20
f 107/193/21 111/188/21 109/190/21 105/194/21
f 112/187/22 108/195/22 106/196/22 110/189/22
f 113/197/1 114/198/1 116/199/1 115/200/1
f 115/200/23 116/199/23 120/201/23 119/202/23
f 119/202/3 120/201/3 118/203/3 117/204/3
f 117/204/24 118/203/24 114/205/24 113/206/24
f 115/207/25 119/202/25 117/204/25 113/208/25
f 120/201/26 116/209/26 114/210/26 118/203/26
f 121/211/1 122/212/1 124/213/1 123/214/1
f 123/214/23 124/213/23 128/215/23 127/216/23
f 127/216/3 128/215/3 126/217/3 125/218/3
f 125/218/24 126/217/24 122/219/24 121/220/24
f 123/221/25 127/216/25 125/218/25 121/222/25
f 128/215/26 124/223/26 122/224/26 126/217/26
f 129/225/1 130/226/1 132/227/1 131/228/1
f 131/228/23 132/227/23 136/229/23 135/230/23
f 135/230/3 136/229/3 134/231/3 133/232/3
f 133/232/24 134/231/24 130/233/24 129/234/24
f 131/235/25 135/230/25 133/232/25 129/236/25
f 136/229/26 132/237/26 130/238/26 134/231/26
