# Blender v2.80 (sub 75) OBJ File: 'sub.blend'
# www.blender.org
mtllib right console wires.mtl
o LS_Wire_1_Cube.028
v 0.080208 -1.102385 0.918110
v 0.080208 -0.442727 0.918110
v 0.080208 -1.102385 0.878178
v 0.080208 -0.442727 0.878178
v 0.120141 -1.102385 0.918110
v 0.120141 -0.442727 0.918110
v 0.120141 -1.102385 0.878178
v 0.120141 -0.442727 0.878178
v 0.080208 -0.475471 0.918110
v 0.080208 -0.475471 0.878178
v 0.120141 -0.475471 0.878178
v 0.120141 -0.475471 0.918110
v 0.080208 -0.442727 0.851010
v 0.120141 -0.442727 0.851010
v 0.080208 -0.475471 0.851010
v 0.120141 -0.475471 0.851010
v 0.080208 -1.143029 0.878178
v 0.080208 -1.143029 0.918110
v 0.120141 -1.143029 0.878178
v 0.120141 -1.143029 0.918110
v 0.120141 -1.102385 0.770004
v 0.080208 -1.102385 0.770004
v 0.120141 -1.143029 0.770004
v 0.080208 -1.143029 0.770004
vt 0.600792 0.000000
vt 0.625000 0.000000
vt 0.625000 0.250000
vt 0.600792 0.250000
vt 0.625000 0.250000
vt 0.600792 0.250000
vt 0.600792 0.500000
vt 0.625000 0.500000
vt 0.625000 0.750000
vt 0.600792 0.750000
vt 0.625000 1.000000
vt 0.600792 1.000000
vt 0.375000 0.000000
vt 0.375000 0.250000
vt 0.375000 0.250000
vt 0.375000 0.000000
vt 0.875000 0.500000
vt 0.875000 0.750000
vt 0.375000 0.750000
vt 0.375000 1.000000
vt 0.375000 0.500000
vt 0.625000 0.500000
vt 0.600792 0.500000
vt 0.875000 0.500000
vt 0.125000 0.500000
vt 0.375000 0.500000
vt 0.375000 0.750000
vt 0.125000 0.750000
vt 0.375000 1.000000
vt 0.375000 0.500000
vt 0.375000 0.500000
vt 0.375000 0.250000
vt 0.375000 0.250000
vt 0.125000 0.500000
vn -1.0000 0.0000 0.0000
vn 1.0000 0.0000 0.0000
vn 0.0000 0.0000 1.0000
vn 0.0000 1.0000 0.0000
vn 0.0000 0.0000 -1.0000
vn 0.0000 -1.0000 0.0000
usemtl None
s off
f 9/1/1 2/2/1 4/3/1 10/4/1
f 10/4/1 4/3/1 13/5/1 15/6/1
f 11/7/2 8/8/2 6/9/2 12/10/2
f 12/10/3 6/9/3 2/11/3 9/12/3
f 1/13/1 3/14/1 17/15/1 18/16/1
f 8/8/4 4/17/4 2/18/4 6/9/4
f 5/19/3 12/10/3 9/12/3 1/20/3
f 7/21/2 11/7/2 12/10/2 5/19/2
f 3/14/5 10/4/5 11/7/5 7/21/5
f 1/13/1 9/1/1 10/4/1 3/14/1
f 15/6/5 13/5/5 14/22/5 16/23/5
f 11/7/6 10/4/6 15/6/6 16/23/6
f 4/17/4 8/8/4 14/22/4 13/24/4
f 8/8/2 11/7/2 16/23/2 14/22/2
f 17/25/6 19/26/6 20/27/6 18/28/6
f 7/21/2 5/19/2 20/27/2 19/26/2
f 5/19/3 1/20/3 18/29/3 20/27/3
f 7/21/2 19/26/2 23/30/2 21/31/2
f 22/32/5 21/31/5 23/30/5 24/33/5
f 19/26/6 17/25/6 24/34/6 23/30/6
f 17/15/1 3/14/1 22/32/1 24/33/1
f 3/14/4 7/21/4 21/31/4 22/32/4
o LS_Wire_2_Cube.029
v -0.023650 -1.102385 0.918110
v -0.023650 -0.442727 0.918110
v -0.023650 -1.102385 0.878178
v -0.023650 -0.442727 0.878178
v 0.016283 -1.102385 0.918110
v 0.016283 -0.442727 0.918110
v 0.016283 -1.102385 0.878178
v 0.016283 -0.442727 0.878178
v -0.023650 -0.475471 0.918110
v -0.023650 -0.475471 0.878178
v 0.016283 -0.475471 0.878178
v 0.016283 -0.475471 0.918110
v -0.023650 -0.442727 0.851010
v 0.016283 -0.442727 0.851010
v -0.023650 -0.475471 0.851010
v 0.016283 -0.475471 0.851010
v -0.023650 -1.143029 0.878178
v -0.023650 -1.143029 0.918110
v 0.016283 -1.143029 0.878178
v 0.016283 -1.143029 0.918110
v 0.016283 -1.102385 0.770004
v -0.023650 -1.102385 0.770004
v 0.016283 -1.143029 0.770004
v -0.023650 -1.143029 0.770004
vt 0.600792 0.000000
vt 0.625000 0.000000
vt 0.625000 0.250000
vt 0.600792 0.250000
vt 0.625000 0.250000
vt 0.600792 0.250000
vt 0.600792 0.500000
vt 0.625000 0.500000
vt 0.625000 0.750000
vt 0.600792 0.750000
vt 0.625000 1.000000
vt 0.600792 1.000000
vt 0.375000 0.000000
vt 0.375000 0.250000
vt 0.375000 0.250000
vt 0.375000 0.000000
vt 0.875000 0.500000
vt 0.875000 0.750000
vt 0.375000 0.750000
vt 0.375000 1.000000
vt 0.375000 0.500000
vt 0.625000 0.500000
vt 0.600792 0.500000
vt 0.875000 0.500000
vt 0.125000 0.500000
vt 0.375000 0.500000
vt 0.375000 0.750000
vt 0.125000 0.750000
vt 0.375000 1.000000
vt 0.375000 0.500000
vt 0.375000 0.500000
vt 0.375000 0.250000
vt 0.375000 0.250000
vt 0.125000 0.500000
vn -1.0000 0.0000 0.0000
vn 1.0000 0.0000 0.0000
vn 0.0000 0.0000 1.0000
vn 0.0000 1.0000 0.0000
vn 0.0000 0.0000 -1.0000
vn 0.0000 -1.0000 0.0000
usemtl None
s off
f 33/35/7 26/36/7 28/37/7 34/38/7
f 34/38/7 28/37/7 37/39/7 39/40/7
f 35/41/8 32/42/8 30/43/8 36/44/8
f 36/44/9 30/43/9 26/45/9 33/46/9
f 25/47/7 27/48/7 41/49/7 42/50/7
f 32/42/10 28/51/10 26/52/10 30/43/10
f 29/53/9 36/44/9 33/46/9 25/54/9
f 31/55/8 35/41/8 36/44/8 29/53/8
f 27/48/11 34/38/11 35/41/11 31/55/11
f 25/47/7 33/35/7 34/38/7 27/48/7
f 39/40/11 37/39/11 38/56/11 40/57/11
f 35/41/12 34/38/12 39/40/12 40/57/12
f 28/51/10 32/42/10 38/56/10 37/58/10
f 32/42/8 35/41/8 40/57/8 38/56/8
f 41/59/12 43/60/12 44/61/12 42/62/12
f 31/55/8 29/53/8 44/61/8 43/60/8
f 29/53/9 25/54/9 42/63/9 44/61/9
f 31/55/8 43/60/8 47/64/8 45/65/8
f 46/66/11 45/65/11 47/64/11 48/67/11
f 43/60/12 41/59/12 48/68/12 47/64/12
f 41/49/7 27/48/7 46/66/7 48/67/7
f 27/48/10 31/55/10 45/65/10 46/66/10
