# Blender v2.80 (sub 75) OBJ File: 'sub.blend'
# www.blender.org
mtllib right console right base screen.mtl
o Right_Base_Screen_Plane.006
v -0.187307 -1.068376 0.747554
v 0.287179 -1.068376 0.747554
v -0.187307 -1.068376 0.461450
v 0.287179 -1.068376 0.462797
v 0.098947 -1.068376 0.747554
v 0.098947 -1.068376 0.326452
v -0.036711 -1.068376 0.326452
v -0.036711 -1.068376 0.747554
vt 0.726346 0.000000
vt 1.000000 0.000000
vt 1.000000 1.000000
vt 0.726346 1.000000
vt 0.230248 0.000000
vt 0.230248 1.000000
vt 0.000000 0.000000
vt 0.000000 1.000000
vn 0.0000 1.0000 0.0000
usemtl None
s off
f 5/1/1 2/2/1 4/3/1 6/4/1
f 8/5/1 5/1/1 6/4/1 7/6/1
f 1/7/1 8/5/1 7/6/1 3/8/1
